/* XPM */
static char *_b8b5bda2d62449beb467fc64fc52da1Kg2LcPcJx7MjserM[] = {
/* columns rows colors chars-per-pixel */
"80 80 250 2 ",
"   c None",
".  c #4D5459",
"X  c #5A5754",
"o  c #5F5B57",
"O  c #53585D",
"+  c #5C676F",
"@  c #5D6971",
"#  c #6C6967",
"$  c #706C69",
"%  c #706D6A",
"&  c #73706D",
"*  c #606A72",
"=  c #616B73",
"-  c #636F78",
";  c #636F79",
":  c #667077",
">  c #657179",
",  c #677078",
"<  c #66737D",
"1  c #67747D",
"2  c #67747E",
"3  c #67757E",
"4  c #6C747A",
"5  c #6E757B",
"6  c #68757E",
"7  c #69767F",
"8  c #757371",
"9  c #757472",
"0  c #777572",
"q  c #787471",
"w  c #797572",
"e  c #797672",
"r  c #7B7875",
"t  c #7D7976",
"y  c #7D7A77",
"u  c #7E7B77",
"i  c #767778",
"p  c #767878",
"a  c #777A7C",
"s  c #747A7F",
"d  c #7D7B79",
"f  c #7E7C7A",
"g  c #787B7D",
"h  c #797C7F",
"j  c #807D7B",
"k  c #817E7B",
"l  c #817E7C",
"z  c #84817F",
"x  c #697781",
"c  c #6A7780",
"v  c #6C7983",
"b  c #6D7A83",
"n  c #6B7B86",
"m  c #6F7C85",
"M  c #6D7C87",
"N  c #6D7D88",
"B  c #707C86",
"V  c #787E83",
"C  c #7C8082",
"Z  c #7C8186",
"A  c #75818A",
"S  c #77828B",
"D  c #7F8589",
"F  c #7A858D",
"G  c #7E878E",
"H  c #7F878E",
"J  c #738491",
"K  c #748692",
"L  c #778894",
"P  c #7F8991",
"I  c #788996",
"U  c #7A8D9B",
"Y  c #7B8D9B",
"T  c #7F8F9A",
"R  c #7F8F9B",
"E  c #7C8F9D",
"W  c #7D909F",
"Q  c #7D919F",
"!  c #7F92A0",
"~  c #7F92A1",
"^  c #858280",
"/  c #878582",
"(  c #868483",
")  c #808487",
"_  c #888684",
"`  c #8A8784",
"'  c #8A8785",
"]  c #8A8886",
"[  c #80868C",
"{  c #80878C",
"}  c #85888A",
"|  c #8B8A89",
" . c #898A8B",
".. c #8A8A8B",
"X. c #8C8B8A",
"o. c #8E8C89",
"O. c #8F8C8A",
"+. c #8E8C8B",
"@. c #93918F",
"#. c #94918E",
"$. c #818B93",
"%. c #889097",
"&. c #80929F",
"*. c #8A9298",
"=. c #8A9299",
"-. c #8F9498",
";. c #919090",
":. c #939190",
">. c #929291",
",. c #959391",
"<. c #979492",
"1. c #979592",
"2. c #939495",
"3. c #939496",
"4. c #949697",
"5. c #959697",
"6. c #989592",
"7. c #989693",
"8. c #989694",
"9. c #9C9997",
"0. c #9C9A97",
"q. c #919599",
"w. c #919699",
"e. c #92979A",
"r. c #9C9B9A",
"t. c #9D9B9A",
"y. c #9E9C9A",
"u. c #9C9C9D",
"i. c #9D9D9D",
"p. c #9E9E9D",
"a. c #9F9E9D",
"s. c #9E9F9F",
"d. c #A09E9C",
"f. c #A19E9C",
"g. c #A09E9D",
"h. c #A09F9D",
"j. c #A19F9D",
"k. c #A2A09F",
"l. c #A3A19F",
"z. c #8092A0",
"x. c #8194A1",
"c. c #8194A2",
"v. c #8195A3",
"b. c #8295A3",
"n. c #8395A3",
"m. c #8495A3",
"M. c #8596A2",
"N. c #8496A3",
"B. c #8696A2",
"V. c #8295A4",
"C. c #8296A4",
"Z. c #8396A4",
"A. c #8497A4",
"S. c #8497A6",
"D. c #8896A1",
"F. c #8897A3",
"G. c #8798A5",
"H. c #8498A6",
"J. c #8998A4",
"K. c #8999A5",
"L. c #8899A6",
"P. c #8999A6",
"I. c #869AA9",
"U. c #879BAA",
"Y. c #889CAB",
"T. c #889DAC",
"R. c #899DAD",
"E. c #899EAD",
"W. c #8A9EAD",
"Q. c #8A9EAE",
"!. c #8BA0AF",
"~. c #93A0AA",
"^. c #92A1AD",
"/. c #8BA0B0",
"(. c #8DA2B1",
"). c #8DA2B2",
"_. c #91A4B2",
"`. c #95A8B6",
"'. c #95A8B7",
"]. c #9FA8B0",
"[. c #9FA9B1",
"{. c #9EACB7",
"}. c #9BACB9",
"|. c #9CADBA",
" X c #9EB0BD",
".X c #9FB0BD",
"XX c #9EB0BE",
"oX c #9FB0BE",
"OX c #A0A0A0",
"+X c #A2A1A0",
"@X c #A4A2A1",
"#X c #A6A4A3",
"$X c #A7A5A3",
"%X c #A8A7A5",
"&X c #A9A7A5",
"*X c #A8A7A6",
"=X c #A9A7A6",
"-X c #A9A8A6",
";X c #AAA8A6",
":X c #A9A9A8",
">X c #ABA9A8",
",X c #ADABAA",
"<X c #AFADAB",
"1X c #ABADAF",
"2X c #AFADAC",
"3X c #ACADAF",
"4X c #B0AEAD",
"5X c #A7ADB2",
"6X c #A8ADB2",
"7X c #A9AEB3",
"8X c #ABB5BD",
"9X c #AAB5BE",
"0X c #ABB5BE",
"qX c #ABB6BE",
"wX c #B4B2B1",
"eX c #B4B3B1",
"rX c #B6B5B5",
"tX c #B8B6B5",
"yX c #B8B7B5",
"uX c #B8B7B6",
"iX c #B9B7B6",
"pX c #B4BABF",
"aX c #BCBBBA",
"sX c #B8BABC",
"dX c #C0BEBD",
"fX c #C0BEBE",
"gX c #C1BEBE",
"hX c #C1BFBE",
"jX c #A9B8C4",
"kX c #ADBDC9",
"lX c #B6BBC0",
"zX c #B6C2CB",
"xX c #B7C2CB",
"cX c #B6C2CC",
"vX c #BAC6D0",
"bX c #BBC6D0",
"nX c #BFC9D2",
"mX c gray76",
"MX c #C7C6C6",
"NX c #C7C7C6",
"BX c #C5C7C9",
"VX c #C0C7CD",
"CX c #C2C8CE",
"ZX c #C3C8CE",
"AX c #C9CBCE",
"SX c #CACCCE",
"DX c #C5CCD2",
"FX c #C7CDD2",
"GX c #C7CDD3",
"HX c #CACDD1",
/* pixels */
"            ).SX            ~ GX6.            bX,X            kXuX            oXhX            `.NX            !.SX            Q GX9.            bX<X            ",
"            ).SX            ~ GX<.            bX,X            kXuX            oXhX            `.NX            !.SX            Q GX9.            bX<X            ",
"            ).SX            ~ GX<.            bX,X            kXuX            oXhX            `.NX            !.SX            Q GX9.            bX<X            ",
"            ).SX            ~ GX<.            bX,X            kXuX            oXhX            `.NX            !.SX            Q GX9.            bX<X            ",
"            ).SX            ~ GX<.            bX,X            kXuX            oXhX            `.NX            !.SX            Q GX9.            bX<X            ",
"            ).SX            ~ GX<.            bX,X            kXuX            oXhX            `.NX            !.SX            Q GX9.            bX<X            ",
"            ).SX            ~ GX<.            bX,X            kXuX            oXhX            `.NX            !.SX            Q GX9.            bX<X            ",
"            ).SX            ~ GX<.            bX,X            kXuX            oXhX            `.NX            !.SX            Q GX9.            bX<X            ",
"            ).SX            ~ GX<.            bX,X            kXuX            oXhX            `.NX            !.SX            Q GX9.            bX<X            ",
"            ).SX            ~ GX<.            bX,X            kXuX            oXhX            `.NX            !.SX            Q GX9.            bX<X            ",
"            ).SX            ~ GX<.            bX,X            kXuX            oXhX            `.NX            !.AX            Q GX9.            bX<X            ",
"            I 3X            N 7Xk             ].@.            ~.r.            D.@X            T :X            L 1X            n 5Xz             ].,.            ",
"R.R.R.R.R.R.b.P.Z.R.R.R.R.R.b.P.M.R.R.R.R.R.Z.G.M.R.R.R.R.R.S.S.M.R.R.R.R.R.I.b.D.I.R.R.R.R.R.b.P.G.R.R.R.R.R.b.P.Z.R.R.R.R.R.b.P.M.R.R.R.R.R.Z.G.M.R.R.R.R.R.R.",
"HXHXHXHXHXHXHXHXHXHXHXHXHXHXHXHXHXHXHXHXHXHXHXHXHXHXHXHXHXHXHXHXHXHXHXHXHXHXHXHXHXHXHXHXHXHXHXHXHXHXHXHXHXHXHXHXHXHXHXHXHXHXHXHXHXHXHXHXHXHXHXHXHXHXHXHXHXHXHXHX",
"            g ..q           p ..r           0 } k           0 ) z           y C / y           h ] q           a ..q           i ..y           8 } k             ",
"            b.sX            K lX'             0Xy.            {.*X            ^.4X            P.rX            z.sX            J pX+.            0Xj.            ",
"            ).SX            ~ GX<.            bX,X            kXuX            oXhX            `.NX            !.SX            Q GX9.            bX3X            ",
"            ).SX            ~ GX<.            bX,X            kXuX            oXhX            `.NX            !.SX            Q GX9.            bX3X            ",
"            ).SX            ~ GX<.            bX,X            kXuX            oXhX            `.NX            !.SX            Q GX9.            bX3X            ",
"            ).SX            ~ GX<.            bX,X            kXuX            oXhX            `.NX            !.SX            Q GX9.            bX3X            ",
"            ).SX            ~ GX<.            bX,X            kXuX            oXhX            `.NX            !.SX            Q GX9.            bX3X            ",
"            ).SX            ~ GX<.            bX,X            kXuX            oXhX            `.NX            !.SX            Q GX9.            bX<X            ",
"            ).SX            ~ GX<.            bX,X            kXuX            oXhX            `.NX            !.SX            Q GX9.            bX<X            ",
"            ).SX            ~ GX<.            bX,X            kXuX            oXhX            `.NX            !.SX            Q GX9.            bX3X            ",
"            ).SX            ~ GX<.            bX,X            kXuX            oXhX            `.NX            !.SX            Q GX9.            bX3X            ",
"            ).SX            ~ GX<.            bX,X            kXuX            oXhX            `.NX            /.SX            Q GX9.            bX3X            ",
"            ).SX            ~ GX<.            bX,X            kXuX            oXhX            `.NX            /.SX            Q GX9.            bX3X            ",
"            ).SX            ~ GX<.            bX,X            kXuX            oXhX            `.NX            /.SX            Q GX9.            bX<X            ",
"            ).SX            ~ GX<.            bX,X            kXuX            oXhX            `.NX            /.SX            Q GX9.            bX<X            ",
"            ).SX            ~ GX<.            bX,X            kXuX            oXhX            `.NX            /.SX            Q GX9.            bX<X            ",
"            ).SX            ~ GX<.            bX,X            kXuX            oXhX            `.NX            /.SX            Q GX9.            bX<X            ",
"            ).SX            ~ GX<.            bX,X            kXuX            oXhX            `.NX            /.SX            Q GX9.            bX<X            ",
"            ).SX            ~ GX<.            bX,X            kXuX            oXhX            `.NX            !.SX            Q GX9.            bX<X            ",
"            ).SX            ~ GX<.            bX,X            kXuX            oXhX            `.NX            !.SX            Q GX9.            bX<X            ",
"            ).SX            ~ GX<.            bX,X            kXuX            oXhX            `.NX            !.SX            Q GX9.            bX<X            ",
"            ).SX            ~ GX<.            bX,X            kXuX            oXhX            `.NX            !.SX            Q GX9.            bX<X            ",
"            ).SX            ~ GX<.            bX,X            kXuX            oXhX            `.NX            !.SX            Q GX9.            bX<X            ",
"            R.BX            E CX#.            xX*X            jXwX            }.aX            _.mX            Y.BX            U VX6.            cX:X            ",
"            1 2.            @ e.#           . %.d             P /             A X.            b ;.            1 2.X           + -.$             %.f             ",
"oXoXoXoXoXoXoXoXoXoXoXoXoXoXoXoXoXoXoXoXoXoXoXoXoXoXoXoXoXoXoXoXoXoXoXoXoXoXoXoXoXoXoXoXoXoXoXoXoXoXoXoXoXoXoXoXoXoXoXoXoXoXoXoXoXoXoXoXoXoXoXoXoXoXoXoXoXoXoXoX",
"hXhXhXhXhXhXhXhXhXhXhXhXhXhXhXhXhXhXhXhXhXhXhXhXhXhXhXhXhXhXhXhXhXhXhXhXhXhXhXhXhXhXhXhXhXhXhXhXhXhXhXhXhXhXhXhXhXhXhXhXhXhXhXhXhXhXhXhXhXhXhXhXhXhXhXhXhXhXhXhX",
"            c 4.            * e.$           O *.k             $.'             A +.            m ;.            7 4.o           * e.&             *.l             ",
"            R.BX            E CX#.            xX*X            jXwX            |.aX            _.mX            Y.BX            U VX8.            xX:X            ",
"            ).SX            ~ GX<.            bX,X            kXuX            oXhX            `.NX            !.SX            Q GX9.            bX3X            ",
"            ).SX            ~ GX<.            bX,X            kXuX            oXhX            `.NX            !.SX            Q GX9.            bX3X            ",
"            ).SX            ~ GX<.            bX,X            kXuX            oXhX            `.NX            /.SX            Q GX9.            bX3X            ",
"            ).SX            ~ GX<.            bX,X            kXuX            oXhX            `.NX            /.SX            Q GX9.            bX3X            ",
"            ).SX            ~ GX<.            bX,X            kXuX            oXhX            `.NX            /.SX            Q GX9.            bX3X            ",
"            ).SX            ~ GX<.            bX,X            kXuX            oXhX            `.NX            /.SX            Q GX9.            bX3X            ",
"            ).SX            ~ GX<.            bX,X            kXuX            oXhX            `.NX            /.SX            Q GX9.            bX3X            ",
"            ).SX            ~ GX<.            bX,X            kXuX            oXhX            `.NX            /.SX            Q GX9.            bX3X            ",
"            ).SX            ~ GX<.            bX,X            kXuX            oXhX            `.NX            /.SX            Q GX9.            bX3X            ",
"            ).SX            ~ GX<.            bX,X            kXuX            oXhX            `.NX            /.SX            Q GX9.            bX3X            ",
"            ).SX            ~ GX<.            bX,X            kXuX            oXhX            `.NX            /.SX            Q GX9.            bX3X            ",
"            ).SX            ~ GX<.            bX,X            kXuX            oXhX            `.NX            /.SX            Q GX9.            bX<X            ",
"            ).SX            ~ GX<.            bX,X            kXuX            oXhX            `.NX            /.SX            Q GX9.            bX<X            ",
"            ).SX            ~ GX<.            bX,X            kXuX            oXhX            `.NX            /.SX            Q GX9.            bX3X            ",
"            ).SX            ~ GX<.            bX,X            kXuX            oXhX            `.NX            !.SX            Q GX9.            bX3X            ",
"            ).SX            ~ GX<.            bX,X            kXuX            oXhX            `.NX            !.SX            Q GX9.            bX3X            ",
"            ).SX            ~ GX<.            bX,X            kXuX            oXhX            `.NX            !.SX            Q GX9.            bX3X            ",
"            ).SX            ~ GX<.            bX,X            kXuX            oXhX            `.NX            !.SX            Q GX9.            bX<X            ",
"            ).SX            ~ GX<.            bX,X            kXuX            oXhX            `.NX            !.SX            Q GX9.            bX<X            ",
"            ).SX            ~ GX<.            bX,X            kXuX            oXhX            `.NX            !.SX            Q GX9.            bX<X            ",
"            ).SX            ~ GX<.            bX,X            kXuX            oXhX            `.NX            !.SX            Q GX9.            bX<X            ",
"            b.sX            K lX'             0Xy.            {.*X            ^.4X            P.rX            &.sX            J pX+.            0Xj.            ",
"            c { :           < H 4           ; F a           ; A V           1 B Z 7           b D >           c { >           < H 4           ; F a             ",
"nXnXnXnXnXnXnXnXnXnXnXnXnXnXnXnXnXnXnXnXnXnXnXnXnXnXnXnXnXnXnXnXnXnXnXnXnXnXnXnXnXnXnXnXnXnXnXnXnXnXnXnXnXnXnXnXnXnXnXnXnXnXnXnXnXnXnXnXnXnXnXnXnXnXnXnXnXnXnXnX",
";X*X;X;X;X*Xi.+Xj.*X*X*X*X;Xi.+Xj.;X;X;X;X;Xj.+Xj.;X*X;X;X;Xl.i.j.*X;X;X;X;X#Xi.j.#X;X;X;X;X*Xi.l.l.*X;X;X;X;Xi.+Xj.*X;X;X;X;Xi.+Xj.;X;X;X;X;Xj.+Xj.*X;X;X;X;X;X",
"            I 1X            m 7Xk             ].;.            ~.r.            D.@X            T :X            L 1X            n 7X^             ].,.            ",
"            ).SX            ~ GX<.            bX,X            kXuX            oXhX            `.NX            !.AX            Q GX9.            bX3X            ",
"            ).SX            ~ GX<.            bX,X            kXuX            oXhX            `.NX            !.SX            Q GX9.            bX3X            ",
"            ).SX            ~ GX<.            bX,X            kXuX            oXhX            `.NX            !.SX            Q GX9.            bX3X            ",
"            ).SX            ~ GX<.            bX,X            kXuX            oXhX            `.NX            !.SX            Q GX9.            bX3X            ",
"            ).SX            ~ GX<.            bX,X            kXuX            oXhX            `.NX            !.SX            Q GX9.            bX3X            ",
"            ).SX            ~ GX<.            bX,X            kXuX            oXhX            `.NX            !.SX            Q GX9.            bX3X            ",
"            ).SX            ~ GX<.            bX,X            kXuX            oXhX            `.NX            !.SX            Q GX9.            bX3X            ",
"            ).SX            ~ GX<.            bX,X            kXuX            oXhX            `.NX            !.SX            Q GX9.            bX3X            ",
"            ).SX            ~ GX<.            bX,X            kXuX            oXhX            `.NX            !.SX            Q GX9.            bX3X            ",
"            ).SX            ~ GX<.            bX,X            kXuX            oXhX            `.NX            !.SX            Q GX9.            bX3X            ",
"            ).SX            ~ GX<.            bX,X            kXuX            oXhX            `.NX            !.SX            Q GX9.            bX3X            "
};
