/* XPM */
static char *_604214618dd43ebde5cbf638b052a54q7moLgrqSQzRruRu[] = {
/* columns rows colors chars-per-pixel */
"41 64 243 2 ",
"   c None",
".  c #0B090C",
"X  c #090507",
"o  c #130D0D",
"O  c #110907",
"+  c #0C0E14",
"@  c #120F11",
"#  c #180F13",
"$  c #0E1417",
"%  c #151213",
"&  c #1B1314",
"*  c #14141A",
"=  c #1B1A1C",
"-  c #1D1719",
";  c #17120F",
":  c #261C18",
">  c #26150B",
",  c #2D221C",
"<  c #34271E",
"1  c #1C1C23",
"2  c #181925",
"3  c #1C212D",
"4  c #23232C",
"5  c #282525",
"6  c #352924",
"7  c #2B2B34",
"8  c #242533",
"9  c #35333C",
"0  c #303034",
"q  c #261D20",
"w  c #4F301F",
"e  c #783A1F",
"r  c #4A362B",
"t  c #593928",
"y  c #483A33",
"u  c #4A372C",
"i  c #743A23",
"p  c #653B28",
"a  c #59453A",
"s  c #6E432B",
"d  c #694A39",
"f  c #754936",
"g  c #70533E",
"h  c #2D3342",
"j  c #3B3C44",
"k  c #3B3D4C",
"l  c #353845",
"z  c #34374A",
"x  c #463F45",
"c  c #3D4254",
"v  c #3C454F",
"b  c #45444C",
"n  c #45444A",
"m  c #5A4D48",
"M  c #474955",
"N  c #5B545B",
"B  c #664C41",
"V  c #685449",
"C  c #795A46",
"Z  c #745E53",
"A  c #685B58",
"S  c #7C6355",
"D  c #78614F",
"F  c #565A67",
"G  c #4C5364",
"H  c #5B646E",
"J  c #7A6B6A",
"K  c #656877",
"L  c #716C75",
"P  c #6A5D66",
"I  c #863A28",
"U  c #884A37",
"Y  c #8A5137",
"T  c #934E35",
"R  c #865946",
"E  c #965044",
"W  c #A25B49",
"Q  c #A95F56",
"!  c #8A634C",
"~  c #98634B",
"^  c #856A56",
"/  c #986A54",
"(  c #96775C",
")  c #8B715C",
"_  c #A9644C",
"`  c #A6624F",
"'  c #A86856",
"]  c #B26D5B",
"[  c #B76857",
"{  c #A8745C",
"}  c #B8725C",
"|  c #997964",
" . c #87716A",
".. c #A87863",
"X. c #BD7A63",
"o. c #B77A68",
"O. c #B66C63",
"+. c #C2705A",
"@. c #CC7E6B",
"#. c #C57966",
"$. c #D67B6B",
"%. c #CA7E72",
"&. c #9B877B",
"*. c #AC876A",
"=. c #B7856C",
"-. c #A48975",
";. c #B98A74",
":. c #B9977A",
">. c #C8856C",
",. c #D4846E",
"<. c #CC8473",
"1. c #C38B74",
"2. c #CC8C7A",
"3. c #CA8877",
"4. c #D38372",
"5. c #DA8574",
"6. c #D68B78",
"7. c #C6967A",
"8. c #D7957B",
"9. c #E38B76",
"0. c #E3947C",
"q. c #E6937A",
"w. c #747984",
"e. c #6D7181",
"r. c #7C8690",
"t. c #89858C",
"y. c #968A8A",
"u. c #888998",
"i. c #97909B",
"p. c #BB9A84",
"a. c #A5978F",
"s. c #BBA594",
"d. c #ACA8B3",
"f. c #A29BA8",
"g. c #D58D81",
"h. c #CA9A85",
"j. c #DB9683",
"k. c #D59C83",
"l. c #DB9A85",
"z. c #D89887",
"x. c #E49584",
"c. c #E29B84",
"v. c #E59B8A",
"b. c #EB9C8C",
"n. c #EA9784",
"m. c #F2988A",
"M. c #E49890",
"N. c #EE968C",
"B. c #C5A388",
"V. c #D3A48D",
"C. c #DBA48B",
"Z. c #DBAA8D",
"A. c #D7A386",
"S. c #D8A894",
"D. c #DBB598",
"F. c #C9AD98",
"G. c #E2A48B",
"H. c #E4AA8D",
"J. c #E7A58B",
"K. c #F3A28D",
"L. c #F6A88D",
"P. c #E3AC94",
"I. c #EBAD93",
"U. c #E7AA97",
"Y. c #F4AB94",
"T. c #FCAC94",
"R. c #FDAE9A",
"E. c #F6A799",
"W. c #E3B494",
"Q. c #E9B69A",
"!. c #F2B294",
"~. c #F5B59B",
"^. c #FBB29B",
"/. c #FBBB9D",
"(. c #F8B99A",
"). c #DAB9A7",
"_. c #CFB4A1",
"`. c #EDBCA5",
"'. c #E6BBA4",
"]. c #FBB5A2",
"[. c #F3BCA2",
"{. c #FDBCA3",
"}. c #F9B8A7",
"|. c #F2ACA4",
" X c #FFC29F",
".X c #D9C7B2",
"XX c #ECC3AB",
"oX c #ECC4A7",
"OX c #F3C2A4",
"+X c #FEC3A5",
"@X c #F5C4AA",
"#X c #FEC4AA",
"$X c #FECBAC",
"%X c #F6CCA9",
"&X c #E6CBBA",
"*X c #FCCCB3",
"=X c #F8C8B5",
"-X c #EBD3B7",
";X c #FDD4B3",
":X c #FDD9B5",
">X c #FDD4BB",
",X c #F6DBBC",
"<X c #FDDBBB",
"1X c #F6D7B6",
"2X c #FDD3AC",
"3X c #FBE3BE",
"4X c #DAD1C4",
"5X c #EADBC8",
"6X c #FDD5C2",
"7X c #FEDCC3",
"8X c #F8DCC7",
"9X c #FFDDD4",
"0X c #FDE4C3",
"qX c #FDE9C3",
"wX c #FEE4CA",
"eX c #FEEBCB",
"rX c #F6E8C9",
"tX c #FFF1CD",
"yX c #FFF2C6",
"uX c #EAE8D9",
"iX c #FEECD3",
"pX c #FFECDC",
"aX c #F8E5D8",
"sX c #FEF3D3",
"dX c #FEFAD5",
"fX c #FEF4DB",
"gX c #FEFBDC",
"hX c #F7F2D2",
"jX c #FEEEE2",
"kX c #FBEEE9",
"lX c #FFF5E2",
"zX c #FEFCE4",
"xX c #FEF4EB",
"cX c #FEFFED",
"vX c #FEFDEC",
"bX c #F6F3E7",
"nX c #FEFEF5",
"mX c #FEFDF3",
"MX c #FFFEF9",
"NX c #FFFEFE",
"BX c #FEFEFC",
"VX c #FBFBF8",
"CX c #EFEDE4",
/* pixels */
"                            V.V.7.1.;.=.;.7.V.7.                                  ",
"                        ;.k.W.P.C.A.7.7.7.Z.Z.V.B.:.                              ",
"                    *.=.7.Z.Q.Q.W.H.W.Q.Q.W.W.W.D.F.B.B.                          ",
"                  *.7.Z.OX%X%X%XoXoX;X3X:X<X3XqXeXeX8X-X-X.X                      ",
"            *.*.*.1.Q.OX;X;X:X1X1X3XyXdXtXsXdXgXgXzXzXlXlXlX4X                    ",
"            h.h.A.OX>X*X<X<XqX3XqXtXdXdXgXgXgXgXlXzXvXcXcXvXmXaX                  ",
"          V.C.I.$X$X2X<X-XqXsXeXyXdXdXtXgXzXzXzXvXcXmXmXnXnXnXxXuX                ",
"        V.C././. X$X2X3XqX3XtXtXsXdXdXgXzXzXzXvXvXmXnXMXMXMXMXnXnXuX              ",
"        P.!.L./. X2X:X1XqX3XyXdXgXdXgXzXbXcXcXvXmXnXMXMXBXBXMXMXmXvXuX            ",
"      Z.G.!.!.(.+X;X;X:X0X3XyXdXgXgXvXcXmXmXnXnXnXMXMXMXBXNXBXMXmXvXcX            ",
"      G.!.!.(./.$X;X:X<X0XqXyXdXgXzXcXnXnXMXMXMXMXMXMXMXBXBXBXBXnXcXbXbX          ",
"    k.I.!.!./.+X%X;X<X0X0XeXsXgXzXcXnXMXMXBXBXBXBXBXBXBXBXBXBXVXMXMXnXvX          ",
"    H.!.!.(.+X$X%X;X0XeXtXsXfXlXvXmXnXMXBXBXBXBXBXBXBXBXBXNXBXBXBXVXMXMXCX        ",
"  C.H.I.~.+X$X;X;X<X3XqXtXiXiXlXvXmXnXMXBXBXBXBXBXBXBXBXBXMXBXBXBXBXBXBXMX        ",
"  C.H.~./.$X;X:X<X3X3X0XrXeXiXfXzXcXnXMXBXBXBXBXBXBXBXBXBXMXMXVXBXBXBXBXVX4X      ",
"  P.G.{.+X$X;X<X<X<X,X,X0XrXrXhXlXvXcXmXnXMXMXMXMXBXBXBXBXMXnXMXVXVXBXBXBXkX      ",
"  H.G.~.+X$X:X>X:X>X,X7X0XrXrXhXgXzXvXvXmXnXnXMXMXVXBXBXBXMXnXnXnXVXBXBXBXmX      ",
"7.C.I.(.$X#X;X;X:X<X,X0XeXtXtXhXzXzXzXvXmXvXmXMXMXBXBXBXBXBXBXMXnXMXMXBXBXvX      ",
"7.k.!.{.#X*X:X:X<X3X0XeXsXsXsXdXgXzXvXvXcXcXmXnXMXMXBXBXBXNXBXBXMXMXMXBXNXxX      ",
"7.2.I.{.#X#X;X1X,X0X0XeXtXdXgXgXzXzXvXvXvXmXvXnXMXBXBXBXBXNXBXBXBXMXBXBXNXmX      ",
"7.8.J./.+X$X:X<X0XeXeXsXdXgXgXgXzXzXvXvXvXcXcXmXnXBXBXBXNXBXBXBXVXMXBXBXBXmX      ",
"  G.~.{.+X;X<X<X3XqXeXtXdXdXdXgXzXzXgXzXzXlXlXvXcXmXmXnXMXBXBXMXMXBXBXBXBXmX      ",
"  I.(.#X$X;X<X0XqXeXqXwXeXeXeXsXgXgXiXhXsXeXiXfXlXfXpXjXjXpXjXvXnXMXBXBXMXnX      ",
"  P.~.#X$X:X0X0X0XqX<X<X<X<X<X7XwXwX0X<X<X:X:X<X*XQ.V.V.V.D.XX8XjXBXBXMXMXMX      ",
"  Z.[.#X(.[.@X'.W.D.D.'.`.}.#X#X;X>X<X;X$XOX(.!.G.>.{ { ] X.8.`.9XxXmXMXMXMX      ",
"  7.[.J.x.<.X.' / ! R O.3.x.x.K.{.~.$X<X#X~.j.8.#.[ ] W O.@.j.U.=XjXvXmXMXVXCXxX  ",
"  7.P.>.@.[ ` R f f f E Q [ $.n.Y.!.OX7X7XU.j.@.#.W U E ' X.2.2.P.7XpXMXVXBXMXMX  ",
"  ..C.3.<.3.o./ ! R g s U U _ #.8.[.>XeXsX6XU.Q T e i Y R / =.C.7.B.aXmXBXBXbXkX  ",
"  ;.S.z.j.3.' ! C g d t p i Y _ >.@XeXgXzXiXS.] T T Y s s / >X;.;.p..XBXBXBXmXaX  ",
"  @XU.z.2.' Y R f t t t f i U _ 6.`.wXfXvXvX6XP.] _ >.{ ( p.wX7XsX,XaXmXBXVXbXjX  ",
"  S.G.z.o.U U / ~ s f ! / Y W +.0.P.7XpXcXcXpX=XC.2.A.P.oX1XwXiXlXzXcXBXBXMXnXxX  ",
"  { z.j.X.` ' 3.2.o.o.3.X.[ #.5.q.Y.6XpXvXvXmXaX).;.o.3.z.XX-XlXmXvXmXMXVXvXuXnX  ",
"  =.G.j.v.J.v.v.K.v.8.<.] [ 5.m.q.E.>XpXmXnXmXcXvX8X'.S.U.).8XxXVXMXMXMXMXvXzXuX  ",
"  o.!.Y.^.{.Y.8.4.@.#.#.<.c.Y.K.K.}.>XjXmXMXVXmXmXcXxXaXaXlXxXmXBXBXBXBXnXcXzX5X  ",
"    G.Y.^.+X{.^.K.J.x.b.E.].].R.Y.[.6XlXmXVXVXVXmXnXmXmXmXxXmXBXBXBXBXBXMXcXlX    ",
"    k.I./.{.$X$X+X{.~.{.{.}.].^.~.[.7XlXmXMXVXBXMXnXmXnXnXmXnXBXBXBXBXBXBXvXlX    ",
"    1.H.{.+X$X$X$X$X#X#X{.{.].{.{.@XwXvXnXBXBXVXMXmXmXmXmXnXMXBXBXBXBXNXNXxXlX    ",
"      P.~.+X$X$X$X$X$X*X#X}.].].[.%XiXmXMXBXNXNXmXaXaXlXcXcXmXMXBXBXBXNXNXaXlX&X  ",
"      ~.~.{.#X;X:X;X*X$X{.K.R.^.OX,XiXmXMXNXNXNXmXaX_.&XiXvXmXMXBXBXBXBXBXaXzX    ",
"      G.~.].#X>X<X:X*X{.b.9.R.~.%XeXlXnXBXNXNXBXmXlXB.l.[.wXlXMXBXBXBXMXxX5X.X    ",
"      =.Y.].#X$X$X#X#XY.4.$.^.!.@XeXfXmXBXNXNXmXvXzXXXv.j.`.wXmXMXVXMXmXpX.Xa.    ",
"      R 2.~.{.{.#X{.T.q.$.9.n.v.l.#X<XwXpXxXvXaX5XlXpX=Xg.j.*XiXzXmXmXmX5XF.-.J P ",
"      d / I.^.^.R.E.n.,.K.R.n.#._ >.Q.`.'.8X=X).rXlXvXpXXX<.l.1XzXvXvXjX&Xs.&.m N ",
"  6 : w g z.I.^.^.b.5.9.T.T.K.6.' Y ~ { *.h.S.XXsXlXvXzXiX}.k.'.rXlXvXaX).s.y.m L ",
"% = & > t ;.J.K.K.9.q.R.T.R.K.<.] T Y R ' o.S.>X0XzXzXzXgX>X~.XXwXiXzX8X).p.y.y.K ",
"= @ = : u R z.c.q.q.q.T.K.0.x.6.@.#.` W ' 2.U.=X1XfXzXfXwX>X*XXXeXeXiXXXB.&.y.t.K ",
"* * 5 = 6 d ..j.0.9.q.8.0.6.0.4.@.0.,.#.] <.|.>XwX8XiXfXwX#X>XXXsXeX-XD.:. .y.t.H ",
"* 1 $ 5 , d R =.0.5.9.>.,.,.0.x.b.R.L.v.6.E.#X>XiXpXpX>Xh.k.$X7XgX<XD.7.-.y t.u.M ",
"1 * = % % y B ~ 8.L.q.} [ #.@.#.4.@.,.6.2.%.3.o.=.p.-.h.P.k.@XwXsX%X7.*.) y i.f.k ",
"& - 5 = % 6 a R { Y.x.@.[ [ I E W #.<.o.] g.3.i s -.5XfX7X@XoXeXeXD.7.( D J d.u.M ",
"& - @ = - : y d R k.K.4.5.K.4.X.W I ` ` E ' o.;.'.iXvXfXfX6X=X<X1X:.;.) V f.f.u.k ",
"q & # & - & y t d ..z.6.b.m.m.6.b.x.5.x.M.E.|.=XwXlXvXfXzXwX*X>X:.:.( S J d.u.u.h ",
"9 - & o % - 6 u t f o.g.v.R.T.x.5.N.m.E.}.E.|.=X8XfXvXzXgX<X`.Q...( Z Z y.i.u.r.+ ",
"9 9 5 = . @ 5 6 r r R ;.j.Y.^.x.5.$.9.m.x.M.M.'.wXlXzXfXiX>X=XS.^ ) V J f.w.w.K $ ",
"9 l 0 5 = . 5 5 , r t / 3.Y.Y.E.5.$.+.[ %.j.z.S.6XfXzXzXfX>X'.:.! Z m i.e.e.w.v 2 ",
"7 3 3 * 5 @ 5 5 : 6 r g { 8./.~.8.2._ ` ] 1.z.S.7XfXzXfX0X=Xh.:.C d  .K K F H j b ",
"3 l 8 * = @ % 5 5 , r g / 2.!.+X#XG.>.' ~ 3.U.=XfXlXfXwXwX'.h.( d A P K G F G 4 j ",
"2 4 9 7 = * * - : : a a g ..k.[.{.Y.c.<.X.2.Y.*XiXwXwX>X'.p.-.D V A F k c G c l F ",
"1 1 4 7 4 . @ @ & & , y B R ..1.8.c.c.4.6.c.~.Q.>X7XQ.XXh.| ) V m n k c c c h K e.",
"4 4 1 4 4 = % . @ & & r B C R / o.3.2.3.2.>.C.D.=XXXS.:.^ C S m x j 8 h k M K e.b ",
"j l 9 7 8 4 * X X o o 6 a d d R / ..o.=.o.7.1.h.V.p.| | | S V 6 5 7 4 h M K K k 3 ",
"M n b j j 0 4 = @ . o : y u a V C / / { / { ..| p.| C ^ S V , & = 2 4 G K K l 2 2 ",
"M n M b b l 0 4 * . o X ; < a a a ! C C C ! C | S ^ B D u : o 1 * 1 c K e.k 4 8 9 ",
"M n n b x b j 9 4 1 = & O : y y a V Z D C ^ t ^ ^ Z m r : @ = * * b K K M 2 4 x F "
};
