/* XPM */
static char *_bb97c09d23a4b939e02920145664055GB8F5gd5bfeKoN5j[] = {
/* columns rows colors chars-per-pixel */
"80 80 256 2 ",
"   c #1B140E",
".  c #15140F",
"X  c #1B1411",
"o  c #181612",
"O  c #24150E",
"+  c #231412",
"@  c #241B15",
"#  c #2B1B14",
"$  c #251D19",
"%  c #2C1A17",
"&  c #361B14",
"*  c #31150E",
"=  c #2C221C",
"-  c #292219",
";  c #33241C",
":  c #3A271C",
">  c #363016",
",  c #2D2928",
"<  c #3B2C24",
"1  c #352A26",
"2  c #2D312C",
"3  c #3A3329",
"4  c #323334",
"5  c #383637",
"6  c #2E2F31",
"7  c #251F18",
"8  c #48241A",
"9  c #532B1C",
"0  c #452C25",
"q  c #542D24",
"w  c #443226",
"e  c #44332B",
"r  c #4A352C",
"t  c #4B382A",
"y  c #543B2E",
"u  c #56372A",
"i  c #4C3A33",
"p  c #473836",
"a  c #543C33",
"s  c #5A3D33",
"d  c #543836",
"f  c #492B34",
"g  c #623A31",
"h  c #421F17",
"j  c #334F2C",
"k  c #244614",
"l  c #5C433A",
"z  c #584338",
"x  c #495037",
"c  c #63453B",
"v  c #67473A",
"b  c #754A3B",
"n  c #6A513B",
"m  c #59643C",
"M  c #4E3D43",
"N  c #6D3D42",
"B  c #3E4449",
"V  c #45474B",
"C  c #584745",
"Z  c #4A4E52",
"A  c #464C51",
"S  c #4D5255",
"D  c #4E5459",
"F  c #52565A",
"G  c #555A5E",
"H  c #56595A",
"J  c #51514C",
"K  c #644B42",
"L  c #6B4D44",
"P  c #684744",
"I  c #754B46",
"U  c #6D5245",
"Y  c #6A534A",
"T  c #745244",
"R  c #7A5444",
"E  c #73544A",
"W  c #7A554A",
"Q  c #745A4D",
"!  c #7B5B4C",
"~  c #7C5A45",
"^  c #6A5554",
"/  c #745B52",
"(  c #7A5C52",
")  c #765654",
"_  c #6B4D55",
"`  c #576759",
"'  c #51694D",
"]  c #676C58",
"[  c #7C645C",
"{  c #7A6557",
"}  c #787557",
"|  c #6A6F52",
" . c #575C61",
".. c #595E62",
"X. c #575B64",
"o. c #5C6165",
"O. c #5E6469",
"+. c #5B6863",
"@. c #5E7364",
"#. c #61666B",
"$. c #646A6D",
"%. c #646969",
"&. c #7E6762",
"*. c #687665",
"=. c #666C71",
"-. c #6C7173",
";. c #757B63",
":. c #825C4C",
">. c #875849",
",. c #865B56",
"<. c #95574D",
"1. c #A5594F",
"2. c #87614D",
"3. c #846254",
"4. c #8B6453",
"5. c #83665B",
"6. c #846A5D",
"7. c #8B6B5C",
"8. c #8C6857",
"9. c #946B54",
"0. c #936C5B",
"q. c #9B6E5C",
"w. c #976756",
"e. c #8A745A",
"r. c #9C735C",
"t. c #96735B",
"y. c #95644F",
"u. c #A56A59",
"i. c #A3755C",
"p. c #A5795D",
"a. c #AC7B5D",
"s. c #A57657",
"d. c #B17D5E",
"f. c #B8695F",
"g. c #856C63",
"h. c #8A6D63",
"j. c #856B67",
"k. c #966C64",
"l. c #8B7164",
"z. c #8D736A",
"x. c #877367",
"c. c #947364",
"v. c #9B7563",
"b. c #93756A",
"n. c #957A6C",
"m. c #9C7C6C",
"M. c #9A7965",
"N. c #9B7D72",
"B. c #947973",
"V. c #8D7871",
"C. c #A47661",
"Z. c #A57A62",
"A. c #AB7C63",
"S. c #A37D6B",
"D. c #A8796A",
"F. c #B27D63",
"G. c #B87967",
"H. c #A27D73",
"J. c #AE7569",
"K. c #C27866",
"L. c #88483F",
"P. c #768D70",
"I. c #78976F",
"U. c #97856B",
"Y. c #9D8275",
"T. c #9B8678",
"R. c #8F9072",
"E. c #AE8165",
"W. c #A4816C",
"Q. c #AC836C",
"!. c #AA866C",
"~. c #B38264",
"^. c #B3856C",
"/. c #B6896E",
"(. c #BB8B6D",
"). c #BB8569",
"_. c #A38374",
"`. c #AA8572",
"'. c #AC8975",
"]. c #A3857A",
"[. c #AC8C7B",
"{. c #A68A7B",
"}. c #B48B73",
"|. c #BA8D73",
" X c #B68A77",
".X c #AB947B",
"XX c #BE9175",
"oX c #B4927C",
"OX c #BD937B",
"+X c #B89378",
"@X c #9D986F",
"#X c #C38A6B",
"$X c #C68C75",
"%X c #C39375",
"&X c #C2957B",
"*X c #C5997C",
"=X c #CB9C7D",
"-X c #C99477",
";X c #D3997D",
":X c #C6936C",
">X c #CFA17F",
",X c #AC8D82",
"<X c #AD9385",
"1X c #B39584",
"2X c #B89987",
"3X c #BB9A8E",
"4X c #97B18C",
"5X c #BCA38C",
"6X c #BBA795",
"7X c #A9B38E",
"8X c #A6AB98",
"9X c #C49C83",
"0X c #CA9D82",
"qX c #C49A87",
"wX c #D09C86",
"eX c #C4A28B",
"rX c #CBA488",
"tX c #D6A689",
"yX c #C9AA96",
"uX c #D5AD93",
"iX c #D9B69B",
"pX c #CAB19B",
"aX c #E4B395",
"sX c #DCBCA4",
"dX c #D5B9A5",
"fX c #CBB6A5",
"gX c #E1BEA3",
"hX c #B7CCAF",
"jX c #9DC692",
"kX c #DCC2AA",
"lX c #D6CEB1",
"zX c #E4C4AC",
"xX c #E4C4A8",
"cX c #E6CAB4",
"vX c #EDD3BB",
"bX c #E6D2B9",
"nX c #F1D4BB",
"mX c #F0CEB5",
"MX c #D4E5BB",
"NX c #C0CD98",
"BX c #ECD8C4",
"VX c #F4DBC5",
"CX c #F4DCC6",
"ZX c #D6E8D2",
"AX c #F6E2CD",
"SX c #FAECDB",
"DX c #F8E6D4",
"FX c #E9E6D1",
"GX c #FAEFE3",
"HX c #F7EEE5",
"JX c #FCF4EB",
"KX c #FAF2E6",
"LX c #FBFAF5",
"PX c #FBF9F7",
"IX c #EEF6E9",
"UX c #D0D7C6",
/* pixels */
" .=.$.$.$.#.o.O.O.o.o....... ...#.o. . . .G G O.=.$.#.#.Z o.$.#.O. .' I.4XhXUXZXZXZXZXUXhX8XI.@.o.....o.o.#.#.o... ....... .G F o.O.O.O.Z ..O.o. .G Z o.o.#.O.#.",
"O.O.G G ..o... ......... .G G G #. .F  .G F G o.#.O.#.$...#...*.4XhXZXIXLXLXPXPXPXPXLXPXLXLXIXZXhXI.+...O...G G G G G G G F F O.#. .o.O.o.$.o...G o.Z o.G G ..=.",
"O...G G ..o.$.o.........G G G G G G G ..o.G ..o... ...O.O.P.hXFXSXHXJXLXPXPXPXLXPXPXPXPXLXJXJXJXKXFXMX4X-...G F G G G G F F F =.o. ...O.o.$.o. . .o.V o.o...F =.",
"O...G G o.o.#.o.............G G G G G G G G G O... . .I.hXFXDXDXSXKXLXPXPXPXPXPXPXPXPXLXLXJXJXJXGXSXDXFXMXjX@.F F G D F G G F $...G ..#.o.#.o... .o.V O.O. .G =.",
"..#.#.#.O.o.o.#.o.....o.o.....G .. .G G G G o.#.o.P.hXBXCXAXAXDXGXJXLXPXPXPXPXPXPXPXLXLXJXJXJXGXSXSXAXAXAXAXMXjXP.o.G G  . .#.O.o.G o.=.F o.#.o. .$.S o.o.G G $.",
"B G  ...G F G S S G o.S Z Z F F G Z F S Z D Z @.8XbXCXCXAXAXAXSXGXJXLXPXPXPXPXPXPXLXJXJXJXKXGXSXSXAXAXCXCXVXVXCXMX4X@.S Z F S O...G $.#.F V Z G D F Z o... .G #.",
"F o.o.o.O.F o.o.O.o.$.F O.o... ...F ..o...o.P.fXBXBXCXAXAXAXAXSXKXLXPXPXPXPXPXPXLXJXKXKXKXGXSXSXSXAXCXCXVXVXVXnXnXVXlX4X*.o...#...X.$.o.H o.o.G G o.S .... ...O.",
"F ....o.o.#.........o.G #...o. ...F .. ...R.lXbXBXBXVXCXCXAXAXSXKXLXPXPXPXPXPXPXJXJXGXGXGXSXSXSXDXAXAXVXVXCXVXnXmXnXnXvXlX4X+.#...o.$...G $.G G G o.V .. .G  .#.",
"S ......#.o.o...o...o.G o..... ...A  . .4XbXcXcXbXBXVXVXVXCXAXSXKXJXLXPXLXPXLXJXJXJXJXGXSXDXDXAXAXCXCXVXVXCXVXnXmXmXmXmXmXvXlXI.o.O.O.O.o.O.G G G o.V o. .G  .#.",
"G .. .....o...o.o...o.o.#.o.G G o.V  .4XbXcXzXcXcXvXvXvXBXBXAXDXSXSXGXJXJXJXJXJXJXJXKXSXSXDXAXCXVXnXnXvXvXvXvXnXmXcXzXcXcXmXcXbX7X*.$.o.G #.G  .G ..Z .. .....#.",
"S .. .......o.O.G o.$...$.o.G G o.S 7XbXcXkXkXkXzXcXcXcXbXbXvXCXAXDXDXSXGXGXGXGXJXKXSXDXAXCXCXnXvXmXcXzXzXzXzXzXxXxXxXgXgXxXxXxXzXNXP.o...O.O.o.G ..A o.......$.",
"B D F F F G F S S S S S ..o.G G +.7XcXcXkXkXkXsXkXzXzXzXzXzXcXbXBXCXCXCXAXCXAXDXDXDXAXCXVXBXnXvXmXzXxXzXxXsXkXsXsXgXiXiXiXiXiXgXxXxXlX@XD G  .F D F Z ....o...=.",
"V ..G G o.o...G G G G G S  ...` 4XkXzXsXdXdXdXdXdXdXdXdXdXdXdXdXkXzXcXcXbXbXbXBXBXVXVXBXvXcXcXzXxXxXgXgXiXiXiXiXiXiXiXiXuXiXiXiXgXgXxXzX7X+... .G ..G ........=.",
"S ..G o.o.G G F F G F F G S o.@XdXiXiXiXpXpXpXpXyXyXyXyXyXyXyXyXpXpXdXpXdXdXdXkXcXvXvXcXzXsXgXiXiXiXuXtXtXuXuXuXuXuXtXrXtXtXtXuXuXuXiXgXcX7X`  .G ..H ....o...$.",
"D ....G G G G F F F F F G  .P.pXuXuXrXeX3XqXqXqXeXeXeXeX3X3X3X2X2XeXeXeXeX3XeXyXpXdXdXsXsXiXuXuXuXuXrX0X=X0XrXrXrX0X*X*X*X0XrXtXtXtXrXiXiXsX4X .G  .H ........$.",
"S  .G G G G G F F F G F G ] 5XyXeXqX2XoXoX1X1X1X3X3X3X1X,X{.'.[.[.oXoXoX1X1XoXqXeXeXqXeXeXrXeX*XOXOXXXXXXX&X*X0X&X%XXXXX&X*X0X=X=XrX=XrXuXuXpXI. .o.G ..o.o...=.",
"V F F S S F S S S S D S S R.eXqX2X2X[.{.{.'.].{.,X,X{.]._.H.m.S.S.S.D.D.`.Q.Q.^. X X/.^.^.^.^.^.^.^././.|.|.XX|.XX|.|.XX&X&X&X&X%X%X&X*X9XrXuX6X` o.S o.o.o...=.",
"B  . . .o.G #.$.$.$.$.O.*..XoXoXoX[.'.]._.Y.Y.].Y.N.N.N.n.b.c.k.k.v.v.C.C.C.i.A.A.A.A.A.A.A.A.A.A.^.^./.|.|.|.XX&X|.|.XXXXXXXXXXXX(.(.|.XXXX0XyXR...S .. ...O.$.",
" .o.o...O.o.=.#.o...G G } [.oX[.[.[.{.{.].].].T.Y.B.b.b.b.c.k.0.q.q.q.q.r.q.q.i.i.i.i.i.i.Z.A.A.Q.Q.^.}.|.|.XX&X|.|.|.|.|.|.|.|.(./././.}.}.+XqX.Xo.F ......o.#.",
"..o... .o.o.$. .G ....` x.`..X[.<X<X,X{.{.{.].Y.Y.n.n.b.b.b.c.k.0.0.0.0.0.q.r.r.r.r.i.i.C.A.A.A.A.!.}.}.}.|.|.|././.|.|.XX|.|.^.^.A.E.~./.Q./.}.oX;.A o.......O.",
"..o. .G ..#.$.o.G G #.] n.[.1X1X1X1X1X,X{._._.].]._.Y.N.b.b.c.k.0.0.0.k.c.b.v.v.v.i.r.i.Z.Z.Z.A.Q.}.+X X|.}.|./.^.^.|./.}.|.^.A.A.A.A.Q.^.^.Q.!.!.U.V o.G ....#.",
"G o. .G ..o.#.$.$.$.O.| Y..X2X2X1X1X1X{.N.n.n.N.N.N.N._.m.b.c.k.c.h.c.b.N.H.S.Z.r.r.r.i.i.Z.Z.Q.}.}.+X+X|.|.|./.|.^.^.^.^.^.A.A.A.A.A.A.A.E.W.W.`.U.V O.o.o.o.-.",
"....#.#.#...S G G F F } <X1X2X5X3X2X<XY.n.l.6.h.z.b.n.m._.m.b.b.b.b.B.N.{.`.S.Z.Z.i.r.r.r.Z.A.Q.}.}.}.}.|.|.|./././.^.^.E.A.A.A.A.C.A.C.C.i.r.M.S.U.A V V A F F ",
" .o...=...o.O...G G G R.6X5XyXyXyX6X1X{.B.g.x.6.6.g.b.m.m.M.b.b.n.b.n.n.H.S.S.Z.Z.Z.Z.Z.Z.A.'.1X2X2XOXOX|.|.}.^.^.^.E.A.A.A.A.Z.Z.i.i.i.r.r.r.r.r.M.O. ...o. .#.",
"..$.#.O...o.o.G ` ` ' @XfXn.n.l.b.Y.Y.{.2X2X<X{.T.Y.{.oXoX1X1X1X{._.N.N.N.2X2Xm.t.t.M.M.S.oXrXyXuXrXeX*XOX+X|.^.^.A.A.A.A.A.Z.A.Z.i.C.i.i.r.r.r.r.e.`  . . . .%.",
"D #.o.O.o.G ' j t 3 : 6..X: < w w w w i { V.T.T.n.5.8.0.r.t.0.7.0.0.7.b.].fXlX6X1X{._._.{.1X5XyXeXqX2X2X9XOXXX|.^.A.A.a.A.A.Z.Z.Z.A.C.i.i.p.r.r.r.e.] G  ...G #.",
"D ..o.o.` j @ O 3 w i z t # < 3 e ; < - e e w : z / { 3.4.~ ~ R R T E ( { { { Q z i r t z C Y 6XpX2X1X1X1X2X+X}.^.A.p.i.C.A.A.Z.Z.i.Z.Z.Z.p.i.i.r.0.] G .. .G #.",
"F ....` k X     3 < w < O $ ; 3 3 @ 1 3 e 3 < - # ; s T b b ~ R b v a i ; : < t e %   O X @ - T.{ e r l Q h.M.!.}.Q.A.i.i.C.Z.i.i.s.i.Z.C.Z.Z.i.r.0.] o...G G $.",
" ...o.j O   o   = 1 < - o o @ - $ o $ - $ @ X o   X % s v b >.>.R u < 3 # < 3 3 3 = + @ X o   1 = % % % % & 8 v c.`.Z.A.C.i.i.s.s.p.p.p.Z.r.r.r.r.0.' D S A D G ",
"....` >   o o o     O   . . . . o o o o . o o o o . X 0 u g b b g # X X   o @ @ @ $ X X @ X o X X + % % & & & & r 7.D.C.i.i.i.s.p.p.s.p.p.r.r.r.r.t.` o.o.o.o.#.",
"G *.} ; X o o o   O %   o o o . . . o o . o o o o o X C 6._.oXv.L O + + X   X X X +   o o X X X X + * & 8 8 h & & g v.Z.i.i.s.i.s.s.s.s.p.i.r.i.r.e.` o.o.o.o.=.",
"*.6X6Xi + o X o X : : + + X X o   . . . . .   .   o @ z y L 0.c.v * O O # + + X X + + X X X X + + # * & 8 8 8 8 8 9 2.i.i.i.i.s.s.s.s.s.r.r.r.r.r.e.H o.o.o.o.$.",
"` ;.{ ; @ + 1 @ # r : # + + + + X   X o   o o X $ $ 1 e r Q c.R 0 * * & & * * # + + + X + X + + # * & & 8 8 8 8 9 q >.Z.i.i.s.s.s.s.s.s.r.r.0.9.9.e.` o.o.o.O.-.",
"D ..m & % ; : t n c r r 0 w < < < < < = @ + + = , % i r ^ <XpXk.u & h 8 8 8 8 & % % % % + + + O # & & 8 9 9 q q q q 8.2XW.r.r.q.i.s.p.s.s.r.9.9.9.e.V G ..G F %.",
"H G | u t y U .XkXm.l y y 0 w a a w w e < ; # % ; e a K j.3X3X7.u t s v v g u 8 % % % 1 % % % % ; 0 0 q g v b R b R oXkXpX.Xe.8.e.t.r.r.r.9.4.9.8.} `  .G Z D G ",
"F G | v z c e.+XdXc.c s t w z L K i i i e w r e i a a Y h._.W.C.v r y v I v v s r < : ; @ @ # e : 0 y c b R >.<.<.>.9.&X}.!.W.M.W.+XW.9.2.2.! 0.0.{ G G  .G G G ",
"F G | T c n 8.9.}.8.v l a y s l U l i r r r r r i : a / ].{.D.E.9.u c T R R v s a s c c r i a a : a 0 v R >.<.y.q.w.s.-X~.A.a.p.i.i.r.t.9.8.s s 8.{ G G G ' G ..",
"D G ` } n n 3.4.OXc.U L L c c c c c c l l l l l i 0 K T.cXzX|.).).b n R >.~ b v c l v T U c K Q 3.7.v v b >.w.u.C.A.F.%X).a.a.a.s.s.p.p.r.4.b q U K P.8X6XT.} ..",
"F o...] U U 3.q.qXY.( ) E E E E T U U U L K K a 0 s Y n.dXgX*X:X:Xi.v ~ y.9.>.R T T T R R T ~ ! ! ~ :.w.y.9.p.A.A.E.A.(.~.A.a.a.s.s.s.i.9.0.4.g a Q fXpXOX/.W.;.",
"B Z Z H | Q 5._.qX1X5.[ ( ! ( ( ! ! Q 5.( U c E v K ( b.oXuXtX:X:X(.>.b 9.i.r.4.4.4.8.0.q.r.S.}.}.D.Q.^.Q.A.A.Q.^.Q.a.~.E.a.E.a.s.a.p.0.4.q.q.w.r.D.&X$X$X$X|.U.",
"G o.o.o.| / 6..XyX3Xg.g.[ { { 3.3.{ ( 3.( n 5.3.v E b.,X'.0XtX:X:X#Xd.b >.Z.E.Z.r.0.r.v.Z.A.Q.|.|.|.&X&X|.|./.^.^.A.p.E.~.~.~.a.a.a.p.0.>.i.^.%X;XwX-X$X$XK.$X+X",
"G o.O.o.` | } .X5X3Xz.j.&.g.h.5.5.5.5.{ l.'.M.W E g.6XBXrX|.;X:X#X#X).i.>.2.Z.A.Z.S.Z.Z.Q.^.^.}.}.|.&X*X&XXX|././.i.p.a.d.~.d.a.a.p.p.4.9./.=XtXtXtX;X#X$XK.f.XX",
"F o.o.o.o.o.P.6XpX2Xz.j.{ B.].].N.7.7._.[.m.4.W 3.H.cXBXxX&X-X-X(.#X).~.i.w.9.v.W.W.W.Q.^.}.|.|.}.}.|.&X&XXXXX+XA.i.A.a.a.d.d.a.a.p.Z.4.A.%XrXtX;X;X;XK.K.f.1.+X",
" .o.o.o.O.o.o.@X6X6XY.U.<XfXfX6X[.{.,X_.H.M.W ,.7.1XiXsXiX=X#X-X(.).d.F.(.^.Z.M.M.`.2X2XeXrXrXeXqX2XOX*X*X&X&X^.p.A.a.d.d.F.a.a.a.p.r.2.~.-X;X;X-XG.#XK.K.1.f.+X",
" .O.O.o.#.#.$.R.7.Q U m.m.1XqXqX1X,X,X{.n.( :.,.4.`.XX=XrX>X%X:X).~.i.s.~.0X&XOXOX}.'.5XpXxXxXsXsXvXvXcXsXeX!.E.~.~.~.~.~.F.A.A.A.A.t.4.F.#X$Xu.).;X-X#XG.1.u.+X",
"A G G ..o.S ' U.E v c T M.`.oX1X,X,X].n.3.W W >.y.i.^.%XtXuXtX;X:X).F.d.d.|.|.&XrXrXeX2X[.oXeX'.5XpXyXyXrXuXtXXX(.~.~.~.F.F.A.a.A.A.0.2.a.d.$X<.u.$XtX;XG.<.J.U.",
"..o.o...#...;.g.c s s v 7.].[._.n.b.h.,.>.>.>.>.w.F.#X;XaXaXuXaXaXaXtX-X#X).^.|.XX&X0XrXuXuXrXeXrXrXrXtXtXtX=X%X(.).~.~.F.A.a.a.a.i.2.2.~.).$Xu.f.$XtXtXu.<.G.;.",
"G o.o...o.%.g./ s s s c ( h.h.6.( / E I >.w.v g w.F.$XwXaXuXtX2X9XuXaXtX;X(.~.^.|.&X9X0XrXrXtXtXtXtXtXtXtX>X=X%X|.(.~.~.a.A.A.A.p.i.:.9.(.=X=XG.1.G.wXtXu.u.!.*.",
" .o.$.o.o.*.z.U a a s v Q ( ! / ) ( E P >.u.b & u q.G.wXtX|.~ : : T &XtXtX#XA.^.^.|.XX&X*X*X0X0XrXrXtXtX0X=X=X%X|.)./.~.A.a.a.p.i.r.:.9.-XtX=X).<.f.$XwX<.D.} %.",
"G ..#...o.R.B.n y s l c E E E ( ( ) E P P I b g g R C.G.&X&X`.k.>.b u.;XtX#X~.A.A.^.|.%X%X%X*X*X=X0X=X0X=X-X*XXX(.).~.F.a.a.a.i.i.0.b 9.=XwX-X).<.1.K.G.w.M.+.#.",
"S ..G F G R.B.v a l l v L E ) ) ) ) E _ C s q q s I ,.0.q.D.OX9XwX-X).:X:XF.C.Z.A.Q.(.XX%X%X&X*X*X*X*X&X*X&XXX|.(.)./.F.A.A.i.i.q.>.T 9.%X).$XC.L.<.G.u.C.*.o.$.",
"F G  . . .R.B.l y s l c v L E ) ) ^ ^ ^ _ C p e i K ( ( ( 8.S.W.Q.F.F.d.a.i.C.A.Z.A.^.XX%X&X*X*X=X=X*X&X&XXX|.|.(.).~.F.A.A.i.r.y.>.R 9.s.>.u.u.<.u.#Xy.U.o.o.#.",
"G o.G  . .;.j.z y a s l v L E ^ ^ ^ ^ ^ J V M p z Y / Y L ( 6.7.0.r.Z.C.i.C.C.Z.Z.A.^.|.&X*X*X*X*X*X*X&X&X|.(.(.).^.~.A.Z.i.q.4.:.:.W 0.(.%X0X-X(.$Xu.9.*.o.#.o.",
".. . .G G ` } s y a s s l K K ^ _ H H F Z M M p 3 e p e i Y / ( { 8.q.r.C.Z.S.S.Z.A.^.XX*X9X0X9X0X=X*X&XXX|././.^.^.A.Z.i.q.w.:.2.:.L 4.(.=XrX-XF.y.w.U.o.o.$.o.",
"....G G G G ' i i y a s z l C J J J Z V 5 5 5 p 1 $ @ + ; a l Q [ 5.5.7.c.c.c.M.S.S.Q.XX*X0XrX0X9X&X&X&XXX|.^.^.^.A.Z.C.0.4.4.:.:.R L 4.A.^.}.i.<.u.D.*.#.$.O.#.",
"o.#.O.o.....x w i y a a s l C C V M 5 5 6 p d P ) L M P ) ,.v U L ( [ 6.6.6.7.c.M.S.Q.+X9X9X9X9X9X&XXX|.|.|.}.^.Q.Z.C.8.:.4.7.~ :.W L q.|.^.C.q.C. XU.=.=.#.G =.",
"B G S G G F x e t y a y a a p p 5 1 < e d P L P I ,.k.v.v.D.D.k.! ( ( 6.g.h.h.0.v.S.Q. XXX9X9X9X*XXX&XXXXX}./.^.A.C.0.3.3.4.4.3.:.W E `.uXtX0XXX.XP.G =...G ..-.",
"D $.$.=.O.+.j < w i a a i r < < r r a v W W I g I ,.k.D.J.D.D. X1XoX6.Q 5.h.l.h.M.!.Q.}. XOXOX9X&XXXXX|.|.}.Q.D.r.8.4.3.3.:.3.:.W T T } @X.X.XR.] G ..$.G G G =.",
"o.$.o.o.o.` j < < r i i r w e a K l s v I P g d g I k.k.k.k.v.v.D. X2X'.c.U 5.b.M.'.+X}.'.oXOXOXXXXXOX|. X`.D.S.M.0.8.4.3.! :.:.W v n '  .G ....G ....$.G G G $.",
"O.o.o.G O.` j 1 1 < r r w r a z d < & < f f f d d N I I N I I >.,.8.v.'.`.7.6.7.7._.2X+X}.'.}.XX+XXX}.W.S.Q.S.S.M.0.7.3.:.:.~ :.! U n `  . .....G ....$.G G G =.",
"O... .G o.' 3 = 1 < e < < w r r < < e p M _ _ _ ) I N I W ,.,.,.,.,.,.W E E ( E 5.5.'.oX X}.}.+X}.}.W.M.W.`.S.S.v.0.8.4.4.2.3.~ ( U m  . .G G G G  .G $...G o.$.",
"#...G G ..` 3 1 = 1 < < < < w r d y d d l P ) ,.,.,.,.,.,.w.,.w.w.0.0.4.:.T v L { 7.c._.'. X}.!.!.+XW.m.W.W.`.v.0.c.M.4.8.2.W E E L | o.O... .......Z #.=.=.$.-.",
"O.o.G F o.+.j = ; 1 < < < w r y y y y u s U ,.k.8.k.k.v.D.D. XqXqX9XOX}.S.m.0.3.5.7.0.c.`.!.`.`.`.'.`.'.W.oX`.S.M.m.7.3.7.8.! ! Q E ' S F F D D S S S S S V V Z ",
"o...G F %.H j = = ; < ; : 0 r y a s y u u a a s d y l s U 3.k.S.`. X X`.D.`.W.S.M.c._._.m.`.`.m.S.`.`.[.`.`.`.S.m.M.3.7.5.3.( ( E n ` ...... ... . .G ....o. .#.",
"....G F o.H ' = % < : - ; ; r u u s c v v L E L l r i r a L ( c._.'.}.D.`. X X}.`.S.m._.c.`.'.`.m.S.m.m.`.`._.m.W.c.c.h.6.{ { E ( m +.o.......G  . ...o... .G #.",
"o...F F o...+.j $ = % ; ; : 0 r u s v b R >.,.0.8.3.( Q E :.7.M.D.^./.^./.9X9X&X|.}.S._.c.W.`.`.'.[.W._._.M.Y.b.b.l.8.7.5.( ( / U ' S #..... .G  . .G ....G G o.",
" .o.#.$.O.o.$.' 2 , 1 % - : 0 0 q u c b >.>.,.4.,.:.:.~ ~ ,.w.C.A./.).|.&XqXwXqXOX'.M.h.m._.m.{.`._.m.].m.b.Y.h.z.5.h.6.5.( 5.( n ` o.S o..... . . .G .. . ...o.",
"G o.o.o.o...O.O.j 1 , $ % % ; : 0 d l v I U U I W W W U E :.>.w.q.D.^.|.XX&X1XOXOX`.m.z.b.N.n._.m._.b.N.b.n.l.6.g.g.n.6.z.h.h.( ' ....o.F G o.o..... .G G ..H ..",
"S ......O..... .' j , $ @ # @ - < e p p C z C K L L K K P L U W :.0.Z.Q. XoXoX.X[.h.c.N.].m.Y._.N.].n.b.b.Y.l.l.6.n.n.g.h.h.[ | ` ..G ..G o.O.....O.V ....o.o.o.",
"Z ..o.o.o.#.#.o. .' 3 , $ @ @ @ $ 1 3 5 i C K ) ( Q L L K c c L T ~ 8.7.Y.W.'.Y.b.( 5.h.z.].].Y.b.N.N.b.b.b.l.h.b.Y.x.V.z.{ ] +.O...G ..G O.o.o.o.#...o.o.o.o.-.",
"Z o.o.o.O.O.O.o...` x 1 $ $ % @ $ = 1 e i K Y ,.,.,.Q L c c s c U ( 3.! g.6.6.3.b.{ [ [ [ n.b.Y.z.B.B.N.N.B.V.B.B.x.z.V.[ | $...#.......G o.o.o.o.$.G o.o.o.o.-.",
"S ..o.o.o.o.#.o.o. .' 5 , $ @ $ $ = = < z l U ! 3.:.W L K L c U Q { Q ( { l.M.M.6.6.{ l./ z.z.N.z.B.B.B.h.z.z.z.x.B.&./ ` O.#.o.#.o.......#.o...o.-.V o.o.o.o.=.",
"G ......o.G #.o.o... .' 3 $ = - @ = 1 e z z n ! 4.:.T L L L U E h.n.b.5.7.n.M._.z.g.6.x.5.h.B.N.j.j.z.j.[ j.x.j.V.x.| *.#.#.$.o.O.o...o.G o.o...o.$.V o.o.o.o.=.",
"F ......o.o.D  .o. .o.S ' 2 = = = = < w z l L 3.0.4.T v U Q Q 6.Y.l.n.5.{ 7.l.n.5.{ j.B.&.&.B.g.[ &.[ [ [ [ { | ] J S G F o.D Z G G F G V S G F F ..V G F G G F ",
"G ......o.H  .o.O.O.$.G ..' j , = = ; t z K U ( ( ( U l z K / 6.g.l.g.[ { z.Y.l.j.g.g.g.&.&.j.^ ^ Y Y { | ] ` o.O.D ..o..... ...O... . .G G  .G  . .G G  . .G ..",
"D ..G ..o.G o.......o.F o...` j 2 , < e a l Y U L K a l l Y Q / ( / / [ g.[ l.[ &.{ ^ ^ ^ C J J ' ' +.H o.....o.#.D  ... .G G #.o.G  .G o.G  .G G G G G  .G G o.",
"V ..G  .....o.........Z o.....o.' 5 5 3 i z K K s a i i l C Y / ^ / C Y Y [ { Y ^ C C x ' ` ` ......o.G ..o.....#.S o...G G  ...G G G G  .o.G G G G G G G G G %.",
"S ..G G ..G O.....o...S o.......%.j j 1 p i C d z p p p e z i z C C p C C z p z C x '  .o...o...o.o.........o...o.F o.o.....o.......G G  ...G G G G G G G G G o.",
"S #.O.O.o.o.o.O.O.o.O.H o. ...o.#.V ` ' j 3 3 3 3 2 , 1 , 3 1 1 3 p 3 1 3 p x x ' +...O.#.o.O.o.o.#.$.H o.o.o.o.#.V o.#.#.$.#.O.o. .o...o.o... . .G G G G G G %.",
"6 5 5 5 5 6 4 5 6 4 5 6 4 4 4 4 4 6 2 2 4 j j j j j j j j j j j j j j j j j j 4 , 5 5 5 5 6 4 5 4 4 4 6 4 4 4 4 4 6 6 6 2 6 2 2 6 6 6 6 4 2 6 4 4 4 5 5 5 5 4 4 "
};
