/* XPM */
static char *_21bb8590f074c938d8a2e64c7241969MvSCwF0ULlYTQEkZ[] = {
/* columns rows colors chars-per-pixel */
"80 80 217 2 ",
"   c #2C2D2D",
".  c #2E302E",
"X  c #2E2F31",
"o  c #2E3232",
"O  c #313334",
"+  c #363739",
"@  c #37393A",
"#  c #3F4449",
"$  c #3E4346",
"%  c #414549",
"&  c #454A4D",
"*  c #44484B",
"=  c #474C50",
"-  c #4A4E53",
";  c #4D5256",
":  c #4F5459",
">  c #515456",
",  c #52565A",
"<  c #555A5E",
"1  c #595C5E",
"2  c #5C5557",
"3  c #4B514F",
"4  c #62575B",
"5  c #64595D",
"6  c #625253",
"7  c #755C5E",
"8  c #654A4F",
"9  c #5C615D",
"0  c #575C60",
"q  c #595E62",
"w  c #585C65",
"e  c #665D61",
"r  c #695E61",
"t  c #735D61",
"y  c #795F62",
"u  c #5C6165",
"i  c #5E6469",
"p  c #576065",
"a  c #616466",
"s  c #61666A",
"d  c #64696D",
"f  c #686C6E",
"g  c #6B6366",
"h  c #656B71",
"j  c #696E72",
"k  c #636770",
"l  c #6C7173",
"z  c #706468",
"x  c #BC211F",
"c  c #9A1E23",
"v  c #A51D22",
"b  c #B61F22",
"n  c #932325",
"m  c #9D2325",
"M  c #9B2629",
"N  c #8F312F",
"B  c #A42326",
"V  c #AB2426",
"C  c #A52429",
"Z  c #AA2429",
"A  c #AE2929",
"S  c #B42525",
"D  c #BC2525",
"F  c #BD2A26",
"G  c #B3252A",
"H  c #BE2628",
"J  c #B52A2D",
"K  c #BC2A29",
"L  c #B62B26",
"P  c #BD322B",
"I  c #B7302A",
"U  c #B72C31",
"Y  c #B82D32",
"T  c #AC3C3A",
"R  c #AA3434",
"E  c #B43C3A",
"W  c #BD3D3B",
"Q  c #B93A37",
"!  c #C42626",
"~  c #CA2625",
"^  c #C52827",
"/  c #CC2926",
"(  c #C32728",
")  c #CA2728",
"_  c #C42B2A",
"`  c #CD2B29",
"'  c #D32625",
"]  c #D12926",
"[  c #D32D2B",
"{  c #DA2E2B",
"}  c #DC2827",
"|  c #C4332C",
" . c #CC332D",
".. c #D4332D",
"X. c #D9342E",
"o. c #D5382F",
"O. c #D9382E",
"+. c #D72E31",
"@. c #C63531",
"#. c #CC3631",
"$. c #C33A35",
"%. c #CC3933",
"&. c #C43D3B",
"*. c #C93E3A",
"=. c #D43631",
"-. c #DA3632",
";. c #D53932",
":. c #D93A31",
">. c #DB3C3D",
",. c #E52D2B",
"<. c #EB2E2D",
"1. c #E6332F",
"2. c #EB322E",
"3. c #ED382F",
"4. c #EB2F32",
"5. c #E63532",
"6. c #EB3432",
"7. c #E73D34",
"8. c #EB3B34",
"9. c #ED3639",
"0. c #EC3D3A",
"q. c #E53A3B",
"w. c #F03535",
"e. c #F23B34",
"r. c #F23A3B",
"t. c #F1373C",
"y. c #96443B",
"u. c #BD403C",
"i. c #C2413D",
"p. c #C9413A",
"a. c #C8483F",
"s. c #DC463E",
"d. c #E54137",
"f. c #EA4036",
"g. c #E64138",
"h. c #EB413A",
"j. c #9B3F40",
"k. c #CC3C41",
"l. c #D53E40",
"z. c #EE3E40",
"x. c #E23F41",
"c. c #F53E41",
"v. c #8D5354",
"b. c #8E5659",
"n. c #8E5A5C",
"m. c #875757",
"M. c #92565A",
"N. c #925A5D",
"B. c #905356",
"V. c #8E4F52",
"C. c #B94A45",
"Z. c #A45254",
"A. c #A65759",
"S. c #B3595B",
"D. c #B95554",
"F. c #B14D4D",
"G. c #955D61",
"H. c #9D5F62",
"J. c #A85E62",
"K. c #946263",
"L. c #AB6464",
"P. c #AC6769",
"I. c #AE6C6D",
"U. c #AD6A6A",
"Y. c #A76768",
"T. c #B06B6D",
"R. c #B8726E",
"E. c #B26F70",
"W. c #B17171",
"Q. c #AD6F70",
"!. c #C64A45",
"~. c #CB4C45",
"^. c #C64E4B",
"/. c #C74643",
"(. c #D24242",
"). c #D14E49",
"_. c #D64742",
"`. c #C6514B",
"'. c #C9524C",
"]. c #C8574C",
"[. c #D3544E",
"{. c #C74F50",
"}. c #C55353",
"|. c #C95352",
" X c #CB5D54",
".X c #C65D56",
"XX c #D35750",
"oX c #EE4244",
"OX c #EE4343",
"+X c #E64143",
"@X c #F14445",
"#X c #F94244",
"$X c #CB6156",
"%X c #CC645B",
"&X c #CE6A5B",
"*X c #D1655B",
"=X c #C96B64",
"-X c #D16E61",
";X c #CD7265",
":X c #D27769",
">X c #C97C73",
",X c #D38576",
"<X c #7F8386",
"1X c #B99288",
"2X c #C0938A",
"3X c #D89585",
"4X c #D79B98",
"5X c #DC9D99",
"6X c #D79794",
"7X c #CE9B97",
"8X c #DDA09B",
"9X c #D3A49E",
"0X c #C8A495",
"qX c #CBB1AA",
"wX c #D3B6B3",
"eX c #CAB1AD",
"rX c #DACDCA",
/* pixels */
"0 h d h d s p i i u u q q q 0 q d u q 0 0 < < i h d d s 3 i d d i q = u u q q u , s u u u i u u u q q u p d d u w < q u q 0 < , i i i i - q s u 0 < = u u s i s ",
"i i < < q u q 0 q q q q 0 < < < s 0 , 0 < , 9 u d i d d q s u < q a < q 0 0 0 s ; i u q q q q q q < q q a q < , < < < , < , , i s 0 u i u d u q < u = u < < q h ",
"i q < < q u d u q q q q < < < < < , < q u < u i q 0 q i u i q < < d , 0 0 0 0 s # d u q q q q q u s q 0 h q < , < , , < , , , h u 0 q i u d u 0 0 u % u u q , h ",
"i q < < u u s u q q q q q q < < < < < 1 < < 1 d q 0 < u < i q < < a - q 0 0 u s - u q p q q u q u i q < u < , , , , , , < 1 , d q < q s u d i q 0 u & i i 0 , j ",
"q d d d i u u s u q q u u q q , q q < < < < u d u q < p u i d d u d * q q 0 u d : i u u q q q p u q q q 0 u u u u u < < q q s i p < u j , u s w 0 d ; u u < < d ",
"# < 0 q < , , ; ; , p ; = = , : < - , > - : = i u q < s ; , , < < < - 0 q u i d # ; ; < < , , q > : , , q 0 0 p 0 = , ; = , ; i q < k s , % ; < : , = u q 0 < s ",
", u u u i , u u i u <X1XI.H.L.L.L.J.P.P.P.P.L.P.L.L.L.P.L.P.P.P.L.P.L.L.I.P.L.T.L.I.Q.I.I.Y.I.U.I.I.W.P.W.W.W.T.E.P.I.I.I.I.I.E.Y.t d u < u u < < p ; q q 0 q i ",
", q q u u a q q q q d =Xh.0.0.r.r.0.r.0.0.0.0.0.0.0.0.0.0.z.c.z.z.z.z.OXOXOXoXOXoXoXoXoXOX@X@XoXoX@XoX@X@X@X@X@X@X@X@X@X@X@XoXOX+XG.d q < d < , < p % q q 1 0 s ",
"; q q q s u u q u q u S.7.9.6.6.w.w.6.6.6.6.9.9.9.9.9.w.9.9.9.9.9.9.9.9.9.9.9.9.9.9.9.9.r.9.r.t.t.r.r.r.r.r.r.r.r.c.c.#X#Xc.r.9.q.G.s i u i < < < u & u 0 < 0 s ",
", q 0 q q u q u u q q S.9.9.9.6.[ ` ` [ [ [ [ [ ..[ [ [ +.[ +.[ =.=.=.=.=.=.-.-.-.-.-.-.-.-.-.-.-.-.-.-.-.-.-.-.-.-.-.-.>.0.6.5.q.G.d u < s 0 0 < q = q 0 q q s ",
"; q 0 q q q u i 1 u d S.9.9.6.5.C M C Z Z V Z Z V G G G G J J J J J J J U U Y Y Y U Y Y U Y Y Y J Y Y Y J J G J J A Z M Q 0.6.6.q.G.d u q i i u < q = u q q q d ",
"# : , , , , , ; ; ; ; Z.9.6.9.9.A B c B B B V V V V V S S G G G G G G G G G G G G G G G G G G Z G Z Z G Z B Z C C M M m &.9.6.6.5.N.q u : , 0 , : , = q q u q f ",
"& q < < u u q < < < < A.9.6.6.9.J v c m m B v B B B B B B V V Z Z Z Z Z Z Z Z Z Z Z Z V C C B B C C B B B m m n n n n c &.6.4.4.5.N.u , q q q 0 < q < q q q q f ",
"; q < u u , < , , < , Z.9.6.6.9.K v c m m B B B B B B B B B B C Z V C C C Z C C C C B C C C C B B B B C B m m n n n n c k.9.4.4.5.N.; u q q < 0 < q < q q u q d ",
": q q < , , < , , , , Z.9.9.6.9._ b m m B B B B B B B B B B B B B C C C C C C C B C C C C B C C C C C m m M M M n n n Z k.9.4.4.5.v.u u u s u < < 0 < q q q q d ",
"; 0 < < < < < , , , , Z.6.6.6.9._ D V V Z V V V V V S V S S V V S S S S S S S S S S G G V Z V V V V V V Z C B B m M m S l.9.4.4.6.G.u u q s q < 0 u , q u u q f ",
"% , , : ; , ; ; ; : > Z.9.6.9.9._ D V S G S S G S D D D D D D D D D D K K H D D F D H D S D S S S S S S S S Z V Z V V S (.9.<.2.5.M., < < < : < < u ; u u u q f ",
"# 0 0 0 u , d d d d d J.6.6.6.6.` D S S S D D D K H H H ^ ^ H ! ^ ! _ _ _ _ _ ^ ^ D ( ( H ( ( ( H H K D F D S G S V V S (.9.<.<.5.B., q < , , 0 < q ; q q q u f ",
"0 u u q i u h s u q < A.6.6.6.9.` D S S D D D D H H H ^ _ _ ( ( ( ( ( ( ( ( ( _ ! ! ( ( ( ( _ _ H D D D D D D S S S S D (.9.<.<.6.N.q < < < q < < 0 , q 0 q u d ",
"w u q 0 u u d 0 < q p A.6.6.6.6.` D S S D D D H K H ! ( ( ( ( _ ( ! _ _ ( ( ( ( ( ( _ ( ( ( ( ( ! D D K H H D S S S S D l.6.<.<.5.N.< , , , < < < p = u 0 q q s ",
"q u 0 < q a d u < < i A.6.6.6.6.` D S S D D D H ( ! ( ( ( ( _ ^ ! ! ^ ^ ^ ! ! ^ ! ! ^ _ _ ( ( ! ( ! ! ( K D D D S S S D l.6.<.4.6.M.< , : , , , < q * u q q q s ",
", u 0 , q u s d d k s A.6.6.6.6.` D S D K D H H ^ ( ( ( ( _ _ ^ ^ ^ ^ ^ ` ! ! ! ^ ^ ^ ^ ! ( ( _ ( ( ( ! D D D D D S S D >.6.<.4.6.G.q q 0 < < < < s & i u u u l ",
"q q s s d q ; < , , , Z.6.6.6.6.` ! S D D H H ( ! ( ( ( ^ ^ ^ ^ ^ ^ ! ! ) ) ^ ) ( ^ ^ ^ ! ^ ( ( _ ( _ D D H D D D S S D >.6.<.<.1.B., ; = = - ; ; ; * * & = , , ",
"0 u q h q p i q < < < S.6.6.6.6.[ ! S D D H H ( ( _ ( ! ^ ) ! ! ` ! ! ) ) ! ! ! ! ! ! ! ! ^ ^ ^ ^ ^ ^ ( ! ! D D D S S ! >.6.<.<.1.G.u s d d s s i q u q q q 0 s ",
"q d d i w u u < < i < S.6.6.6.6.] ! S D D ( ( ! ( ( ( ! _ ! ! ) ) ) ) ) ) ) ! ^ ^ ` ` ! ! ^ ^ ^ ^ ^ ! ( ! ! H H D S S ! >.6.<.<.1.N.i q q < < < < 0 0 q 0 0 < a ",
": s u i u 1 < < < d u S.6.6.6.6.] ! S D D H ( ! ( ( ( ^ ^ ! ~ ! ! ) ) ) ) ! ) ) ) ! ! ! ! ! ! ! ( ^ ^ ! ! ! D D D D S ! x.6.<.<.5.M.< u 0 < , < < 0 < < q q < s ",
": q u u u , s q q q 0 S.6.2.6.6.[ ! b D D H D ! ! ( _ ^ ! %.p.*.*.*.*.*.*.*.*.*.p.p.p.p.*.*.p.p.$.! ^ ! ! ! D D D D S ~ x.6.<.<.6.N.< q i q < 0 < q q 0 q 0 < s ",
", q q q q , d i u u p S.6.2.6.6.{ ~ b D D D D D ( _ ( ! _  X!.&X X].&X$X].p.p.p.p.p.p.p.&.&.*./..X^ ^ ^ ! ! ! D D D D ' q.6.<.<.5.N.q , u u i u u u i u 1 < q d ",
"0 q u u q < , < , , 0 D.6.6.6.6.{ ~ b D D D D D ! ( ( ! _  X$.3X~.`.,X].$X! |  ._ _ _ _ _ | | _ .X^ ^ ^ ~ ! D D D D D ' +X6.<.<.5.N.u q , , < < < < % : ; = : < ",
"q q u q q 1 d u q 0 0 D.6.6.6.6.{ ~ b D D D D ( ( ( ( ! ^  X$.3X$X3X3X%X%X_ :X;X~.;X-X$X X:X].|  X_ ^ ^ ! ! D D D D D } 0.6.<.<.1.N.s q < i u u u s < u u u u s ",
", q q q q q d u q q 0 D.6.6.6.6.{ ' b D D D D D ! ( ! ! ^  X&.3X$X3X-Xi.%X_ ,X;X~.:X:X&X~.%X*._  X_ ^ ^ ^ ! ! D D D D { 0.2.<.2.1.K.u u > u u u u d , u u u u j ",
"; q q 1 u i s q 0 < q D.6.6.6.6.{ ~ b D D D ! ( ^ ! ! ! _  X&.3X Xa.-X].%X^ %.p.&.@.@.%._ @._ |  X_ ! ( ^ ( ! D ! D D } 0.2.<.2.1.N.s q u u q q u s , u u u q f ",
", q q < q d s q 0 , 0 D.6.6.6.6.{ ~ D D D ! ! ! ! ^ ! ! ^ *X/.:X~.p. X$X|.@.%.%.%.%.@.@.%.@.@.p.%X^ / ^ ^ ! ^ ! ! D D } 0.2.<.<.2.N.q q q u q u i s < u u u i l ",
", q q < 0 u u < < , u D.6.2.6.6.{ ~ D ! ! ! ( ! ^ ! ) ) / /.~.~.~.~.~.~.~.~.~.~.~.~.~.~.~.~.~.~.p./ / / / ` / ^ ! D ! ,.0.2.<.<.1.v., p & ; < < < u % < q < , a ",
"< 0 q < q u q u i u u D.6.6.6.6.X.~ x ! ! ~ ^ ! ` ! / / / / / ` ` ` [ ` ` ` / / / / / ` ` / ] ` / / / / ) / / / ! ~ ) ,.0.2.<.<.1.V., < , < < < < < 0 0 , ; : < ",
", 0 < < q q u q i u d `.6.6.6.6.{ ' D ! ! ! ) ) ) ) / / ` ` ` [ [ ] [ [ [ ] ` [ [ [ [ ] ] [ [ ] ] ] ] ] ` ` / / / ) ) ,.0.<.<.<.1.b.< 0 0 < 0 0 0 < < < < < < 0 ",
", 0 < < < 1 q q q q s |.6.6.2.6.{ ' D ! ! ) ! ) / ` ` ` ` ] ] [ [ [ ] [ [ [ [ [ [ [ ] [ [ [ [ ] ] ] ] ] ] ] / ` / ~ ~ ,.0.2.2.2.5.b.< 0 0 u , , 0 < , , < < < 0 ",
": 0 < , q q i q 0 q q }.6.6.6.6.X.' ! ! ! ) / ) / ` ` ` ] [ [ [ [ [ [ [ [ [ [ [ [ [ [ [ [ [ [ ] ] ] ] ] ] ] ` ` / ) ~ ,.9.6.2.2.5.b.< < 0 q ; < < < < < < < < q ",
": u q < q q i u p i u }.5.1.6.6.X.' ! ! ! ` / / / ` ] ] [ [ [ [ [ [ [ [ [ [ [ [ [ [ [ [ [ [ [ ] ] [ ] ] ] ] ] ] ` / ~ ,.9.6.2.2.5.b.< < q < 0 q < < < < < 0 0 u ",
"$ = = , , ; : w 0 q u ^.6.6.6.6.X.' D ! ^ / / / / ` ] [ [ [ [ [ [ [ [ [ [ [ [ [ [ [ [ [ [ [ [ [ [ [ [ ] ] ] ] ] ` / ] <.r.6.6.2.6.v.0 q , , < ; & & = < < , < < ",
", u u u u s u q q 0 u }.6.6.6.6.X.~ R R.>Xa./ ` ` ] [ [ [ [ [ [ [ ..[ [ [ { [ [ [ [ [ { [ { [ [ [ [ [ [ [ [ ] ~.>X=X@.<.r.6.2.2.6.N.s d , h u u 0 u ; u q u u f ",
", u u u u q u q u u u }.6.6.6.6.X.) y.1X0X`.` ` ` [ [ ` [ [ [ [ [ ..[ [ [ [ [ [ [ [ X.X.X.{ [ [ [ [ [ [ [ [ / %XqX2XR ,.r.6.2.2.6.n.d s s d u q q u 1 i u u q j ",
", u u u u u u u u u q }.6.6.6.6.X.) N 1X0X`./ ` ` ` [ [ [ ..[ [ [ ........[ ............X...{ { { [ [ [ [ [ ` %XqX2XR ,.r.6.2.6.5.N.d d a j s u q u q s d s u f ",
"0 u u u s u u u u u p {.6.6.6.6.X.! y.eXwX`.^ ` ` `  . .`  .............[ ................................[ ` =XrXeXT ,.r.6.2.6.7.N.s h u d u q q u , u u u u f ",
"0 i i u d d d i a i i |.6.6.6.6.X.! N wXqXC.| | @.@.@.@.@.@. .#.#.#.#.#.#.#.#.=.=.=.=.#.=.#.=.#.=. ..... . .` .XrXeXR 1.r.6.6.6.7.n.d u 9 f d s u d > u u u u d ",
"= 0 < 0 p ; & = : 0 i /.6.6.6.6.[ ! N wXwX7X6X6X6X4X4X4X4X5X5X5X8X5X5X5X5X5X5X5X8X8X8X5X5X5X5X5X5X5X5X5X6X6X6X9XrXwXR ,.r.9.6.6.7.n.s d < ; < , , ; , u u u u j ",
"q u u w s q i u u u d ^.5.6.5.6.[ ! A C.C.a./.!.~.~.~.~.~.~.~.).).).).[.).[.[.[.[.[.[.XX[.[.[.[.[.[.[.[.[.[.XX'..XC.K } 6.6.6.6.7.n.s u q i u q < q < u d i u s ",
"< u p q u s u u u u d |.6.6.6.6.[ ~ S S F _ _ _ _ _ _ _ ` ` ` ` ` `  . . . . . . . . . . . . . . . . . . . . ._ _ L L ' 9.6.6.3.7.n.u u u d u q < 0 < q s u q d ",
"q u d u i p u u u u j {.5.6.6.6.X.~ L F F _ _ _ _  .| |  . . . . .`  . . . . . . . . ... ... . . . ... . . . . ._ K H ' 6.6.6.6.7.b.u i u a q q 0 q < u i u q a ",
"< q s q q q u q u u l }.6.5.5.7.X.~ H _ _ `  . . . . . ...................=.....X.X.X.X.o.X.X.X.X.X.-...=.=..... . .` } w.6.6.6.7.n.u s u i q q q q 0 u s u u s ",
"; q < , < , 0 0 q u s !.7.7.7.9.X.' H _ _  . . . . .................X.X.X.X.X...X.-.X.-.X.X.X.X.X.X.X.X.X.o.o.o... .[ ,.r.e.8.8.7.n.u i < q < < ; < = s s i u d ",
", < 0 0 0 q 0 , , , , ^.7.7.7.9.X.] F _ _  . . . ...........o...o.=.-.X.X.X.X.X.X.X.X.X.X.X.X.X.X.X.-.X.X.X.X.o.....[ ,.r.e.8.8.7.n.s a w u q q 0 i : i u u u s ",
"< u < q 0 , < < , < q '.7.7.5.7.{ ] H _ _  . . . ...............o.o.o.X.X.X.X.X.X.X.X.X.X.X.X.X.X.X.X.X.X.X.-.o.....[ ,.e.e.8.8.7.N.u < u q u q q f , u i u s u ",
"q q 0 < < < 0 0 < < q ^.7.6.6.9.X.] H _ _  . . . . ...........=.o.=.=.o.=.=.=.o.o.o.o.X.X.X.-.-.-.-.-.X.-.o.o..... .[ ,.r.e.8.8.8.N.< s u q u q q i , u u u d u ",
"q q < < < , u u < < q `.7.7.7.7.[ ] H _ | |  . . . . . . .............=.=.=.=.=.=.=.=.=.=.=.=.=.=.=.=.=.-.o..... . .[ ,.e.e.8.8.8.b.d u u q q q q s , u d h s s ",
"p s i u q q u d 0 < q ^.5.7.7.7.X.] F _ | |  . . . . . .=.........o.o.o.=.=.=.=.=.=.=.=.=.=.=.=.=.-.=.=.=.o..... . .[ ,.e.8.8.8.8.G.u u u q u u q s < h j d < j ",
"% < ; < < , ; ; ; 0 < ^.5.7.7.7.{ ] F _  . . . . . . .=. .......=.=.o.o.o.o.X.o.X.:.:.:.:.:.O.O.-.:.:.X.-.=.-.=... .[ ,.r.e.8.8.7.v.0 < < , < > ; , , j q < q l ",
": h h h i p i s s s s |.7.7.5.7.X.] _  . . . . .#. .........o.o.o.X.X.:.-.-.-.-.:.-.:.-.-.-.X.X.-.:.:.-.-.:.:.:.-.o.X.,.r.f.8.8.7.n.0 0 0 < < 0 < < q d < < , j ",
"u d u u u u d i u u a `.7.7.7.8.../ _  . . . . . .....=.=.=.o.:.-.X.:.-.-.:.-.-.-.-.-.-.-.:.-.-.-.-.-.-.-.-.:.:.:.=.X.,.e.f.8.8.f.b.0 < 0 < q q , q q d < , , d ",
"i u u 0 i u d i u d s |.7.7.7.8.../ _  . . . . .=.=.=...=.=.=.-.-.-.-.-.:.:.:.:.:.:.:.:.:.:.:.:.:.-.:.:.:.-.-.O.X.o.{ ,.e.e.e.f.d.n.0 < 0 0 q 0 < q q d < < , h ",
"s q q < u u h i d i j |.5.7.7.8...] _  . .#. .#.#.=.=...=.:.=.;.:.:.=.:.:.:.:.:.:.:.:.:.:.:.:.:.:.:.:.:.:.:.:.:.X.o.{ ,.e.f.8.f.f.b.< < 0 < < < , < 0 d q 0 u d ",
"s q < , q s i d d d l |.7.8.8.8.X./ _ |  . . . .%.;.:.;.;.;.:.:.=.:.=.-.:.:.o.:.:.:.:.:.:.:.:.:.:.:.:.:.:.:.:.:.:.=.{ ,.e.f.f.h.g.N.s u i q 0 q q q ; s j j h l ",
"i u < , u a : < : : : !.7.8.8.8.../ |  . . . .#.%.%.;.;.;.;.;.:.:.:.:.:.:.:.o.:.:.:.:.:.:.:.:.:.:.:.:.:.:.:.:.:.X.=.X.,.e.f.f.f.f.v.: ; : , : : : ; : : ; % & - ",
"u q , , d < 0 u q 0 q ^.8.8.8.8.../ |  . . .#.%.%.%.;.;.;.;.;.:.=.:.:.o.:.:.;.:.:.:.:.:.:.:.:.:.:.:.:.:.:.:.:.:.-.=.{ <.e.h.f.f.g.N.u u q q 0 q 0 < < q q u 0 s ",
"q q , , u < s q < , < ^.8.8.8.f.../ P  . .#.#.%.o.;.;.;.;.;.;.;.:.;.:.:.:.:.:.:.:.:.:.:.:.:.:.:.:.:.:.:.:.:.:.:.=.=.X.,.e.f.f.f.g.v.u u q p q < 0 0 q p q 0 < s ",
"u 0 , , u q s q , , , !.8.8.8.8.../ P  . . .#.#.%.;.;.;.;.;.;.;.;.;.;.:.:.:.:.:.:.:.:.:.:.:.:.:.:.:.:.:.:.:.:.:.=.=.{ ,.e.f.8.8.d.G.: s q q q < 0 0 < q q , < u ",
"0 u d d s p d u < , 0 ^.f.8.8.d.{ / | |  .@.%.%.%.;.;.;.;.;.;.;.;.;.;.;.:.:.:.:.:.:.:.:.:.:.:.:.:.:.:.:.:.:.:.:.:.;.{ ,.e.g.8.8.f.n.u ; u q q 0 0 0 < q 0 0 q p ",
", u u u u q i i u u u ^.7.8.8.8.[ / | |  .#.@.%.;.;.%.;.;.;.;.:.;.;.;.;.:.:.:.:.:.:.;.:.:.:.:.:.:.:.:.:.:.:.:.:.=...{ ,.e.g.f.f.d.n.q u , < p u q q 0 < < q < q ",
"; q q q s q q 0 , , q ^.7.d.d.d.{ / | |  . .#.%.%.%.%.%.;.;.;.;.;.;.;.;.:.:.:.:.:.:.:.;.:.:.:.:.:.:.:.:.:.:.:.:.:.o.{ ,.e.f.f.f.d.N.< q < u i q q i & q q u u u ",
"- q u u u s s u 0 < s ^.7.f.d.g...^ P  . . .#.#.%.%.%.%.;.;.;.;.;.;.;.;.:.:.:.:.:.:.:.:.:.:.:.:.:.:.:.:.:.:.:.:.:.=.{ ,.e.g.f.d.d.N.0 q < i u u u s q u u u u l ",
"= u u u u a s u q 0 s ^.7.f.d.d.../ P | @.@.#. .%.%.%.;.#.;.;.;.;.;.;.;.;.:.:.:.:.:.:.:.:.:.:.:.:.=.=.:.:.:.=.=.=.=.{ } 8.8.7.7.g.N.q q q u u u u f < u u u u l ",
"; q u u u u i u p 0 s ^.f.0.d.7..._ P | | @.@.@.@.@.@.#. .%.;.;.;.;.=.=.=.;.;.;.;.:.:.:.=.=.=.;.:.:.:.:.:.=.=.:.=...{ } e.8.7.f.g.n.0 q q k u q u l % u u u u f ",
"< q q q u 1 d u u q q `.7.7.f.7..._ I P | | | | |  . . . . .@.#.#.%.%.=.=.=.=.=.=.=.=.=.=.=.;.=.=.:.=.:.:.=.=.=.=. .{ { e.8.7.f.g.n.q q q u u q u f * u u u u j ",
", q q q u u > 0 q 0 a ^.8.0.0.7..._ J P P P | | | | | | | |  . . . . . . .#.#.#.#.=... .=. .=.=.;.=.=.....=. . . . .[ [ r.f.7.0.d.b.: < % ; , , > q & < , < < , ",
"< q q q u < 0 u i i d '.0.0.0.g...I T E T T T T T E E E E E W E W W W W W W u.W u.u.u.W W u.i.u.u.u.i.Q &.&.W W W W %.[ r.f.d.g.d.N.0 0 < < 0 < 0 0 < < 0 0 < q ",
": q < q u < u q p q i `.0.0.0.7...j.g g e 5 4 5 z 5 5 4 4 5 4 2 2 4 5 5 5 5 5 5 2 e 5 e r r r e e e g 2 r e e r z 2 Z.` e.f.g.g.g.b.0 < u < 0 < < < < < 0 < < u ",
"& q , 0 q q u q u q u C.s.s.s.s.Z.8 i q q 0 0 q q 0 < , , , < < : < 0 < < < < < , u q 0 u a u q q q u q q u q q s ; 7 V.~.s._._._.m.< < 0 u < < , < < < < < < a ",
"; q < < q 1 i q p u q 6 y 7 7 t f & u q 0 0 < < q < , , < < < , , , < < < < < q , q q 0 u q u q u u u q q q u u u , u u e t t 7 7 q < 0 0 u < < < < , < < < < u ",
"; s i i u u u i i u i , u 0 q u s % u u s h i d d d s i u u q < , , < < < < 0 u ; u q u d u s u u i d , u u u u s * u u s d s i u q u q u u q < 0 < < < < , < a ",
"  + + + @ X O @ O O +   O O O O O     . O O O O O + O X O o O O O O O O O O O O   + @ + @ X O + O O O   O O O O o   X   o O . .     O   O X X O O O + + + + O O "
};
