/* XPM */
static char *_0ae6f50774b4e38998e0601944a0f74kqwzukoltOa6AH2U[] = {
/* columns rows colors chars-per-pixel */
"80 80 144 2 ",
"   c #2C2D2E",
".  c #2E302F",
"X  c #2E2F31",
"o  c #2F3132",
"O  c #313334",
"+  c #363739",
"@  c #37383A",
"#  c #3C3F44",
"$  c #3D4246",
"%  c #3F4449",
"&  c #424447",
"*  c #41464A",
"=  c #454A4D",
"-  c #484C4F",
";  c #4B514F",
":  c #474C51",
">  c #4A4E52",
",  c #4D5256",
"<  c #4F5459",
"1  c #515557",
"2  c #545857",
"3  c #51565A",
"4  c #555A5E",
"5  c #595C5E",
"6  c #5C605F",
"7  c #535760",
"8  c #575C60",
"9  c #595E62",
"0  c #5B5F68",
"q  c #576065",
"w  c #5B6161",
"e  c #586062",
"r  c #586063",
"t  c #5B6063",
"y  c #5D6162",
"u  c #5C6063",
"i  c #5E6263",
"p  c #596164",
"a  c #5B6064",
"s  c #5A6265",
"d  c #5B6365",
"f  c #5B6066",
"g  c #5A6167",
"h  c #5B6366",
"j  c #5C6164",
"k  c #5D6164",
"l  c #5D6065",
"z  c #5C6165",
"x  c #5D6265",
"c  c #5F6364",
"v  c #5E6265",
"b  c #5D6067",
"n  c #5C6167",
"m  c #5E6166",
"M  c #5D6266",
"N  c #5E6366",
"B  c #5F6366",
"V  c #5E6367",
"C  c #5F6467",
"Z  c #5C6165",
"A  c #5B6268",
"S  c #5C6069",
"D  c #5D6268",
"F  c #5C6369",
"G  c #5E6369",
"H  c #5D616A",
"J  c #5E626B",
"K  c #5B6469",
"L  c #5F6468",
"P  c #5E6669",
"I  c #5F6769",
"U  c #5D646A",
"Y  c #5F646A",
"T  c #5E656B",
"R  c #5F666C",
"E  c #5E676C",
"W  c #5E6469",
"Q  c #616767",
"!  c #616466",
"~  c #606368",
"^  c #60636A",
"/  c #606568",
"(  c #616568",
")  c #616469",
"_  c #606569",
"`  c #616669",
"'  c #626669",
"]  c #60656B",
"[  c #62656A",
"{  c #61666A",
"}  c #62676A",
"|  c #63676A",
" . c #62676B",
".. c #60646D",
"X. c #61666C",
"o. c #60676D",
"O. c #62676D",
"+. c #62666F",
"@. c #61666A",
"#. c #63686B",
"$. c #65696A",
"%. c #64686B",
"&. c #666A6B",
"*. c #63686C",
"=. c #626A6D",
"-. c #636B6D",
";. c #61686E",
":. c #60696E",
">. c #62696F",
",. c #636B6E",
"<. c #64696C",
"1. c #65696C",
"2. c #64696D",
"3. c #656A6D",
"4. c #666A6D",
"5. c #64696F",
"6. c #66696E",
"7. c #656A6E",
"8. c #666B6E",
"9. c #666B6F",
"0. c #636D6F",
"q. c #666C6C",
"w. c #676D6D",
"e. c #64696D",
"r. c #686C6D",
"t. c #696D6E",
"y. c #686C6F",
"u. c #696F6F",
"i. c #696D6E",
"p. c #6A706E",
"a. c #636770",
"s. c #636770",
"d. c #636A70",
"f. c #646B71",
"g. c #666B71",
"h. c #646B73",
"j. c #676C70",
"k. c #656B71",
"l. c #696E71",
"z. c #6A6F73",
"x. c #6D6E72",
"c. c #696E72",
"v. c #6B7076",
"b. c #6C7173",
/* pixels */
"8 d.7.d.,. .q D D M M 9 9 9 8 9 O.a 8 8 8 4 5 P f.,.,.O.; A ,.,.P 9 > M a 9 9 M 3  .M M M D a M a 9 9 a 9 O.O.a 9 8 9 9 9 8 4 3 A D P P > 9 P a 8 4 > M M  .P  .",
"P P 4 4 9 M 8 8 9 9 9 9 8 4 4 4  .8 3 8 4 3 5 a O.D  .,.9  .M 4 9 ~ 4 9 8 9 8  ., P M 9 9 9 9 9 9 4 9 9 C 9 4 3 4 4 4 4 4 3 3 R  .8 M P a 7.M 9 4 M > M 4 4 9 j.",
"K 9 4 4 9 M 7.M 9 9 9 9 4 4 4 4 4 3 4 9 a 4 9 A 9 8 9 P M P 9 4 4 7.3 8 8 8 8  .% O.a 9 9 9 9 9 M  .9 9 7.9 4 3 4 3 3 3 3 3 3 f.a 8 9 D M 7.M 8 8 M & M a 9 3 j.",
"D 9 4 4 M M  .a 9 9 9 9 9 9 4 4 4 4 4 4 4 4 9  .9 8 4 M 5 P 9 4 4 ! > 9 8 8 M  .> M 9 t 9 9 a 9 M D 9 5 M 4 3 3 3 3 3 3 4 4 3 ,.9 4 9  .w  .M 9 8 M = D P 8 3 l.",
"9 O.O.O.P M M  .M 9 9 a M 9 9 3 9 8 4 4 4 4 M O.M 9 4 t M P ,.,.M 7.= 9 9 8 M 7.< P a a a a 9 t M 9 9 9 9 M M a a a 4 4 8 9  .D t 4 a l.3 M  .a 8 7., M M 4 4 7.",
"% 4 8 9 4 3 3 , , 3 t < > > 3 3 4 > 3 , > < > D M 9 4  ., 3 3 4 4 4 > 8 9 M P 7.* > , 4 4 3 3 9 < < 3 3 9 8 8 t 8 > 3 , > 3 , P 9 4 a. .3 & > 4 < 3 > M 9 8 4  .",
"3 M M M P 3 D M D a 7.3 P a 9 8 9 3 9 M 9 a 4 D 4 3 9 D 3 D P M 4 9 3 4  .a 3  ., D  .P O.4 D M D M ,.3 0.,.7.9 P 3 a a D a 9  .9 8 7.a 4 a a 4 4 t , 9 9 8 9 C ",
"3 9 9 a M P 9 9 9 9 M 5  .9 a 8 9 3 8 8 9 8 4 M 4 3 9 P 5 M 4 4 4 8 3 8  .4 3 ~ 4 a 4 9 M C M 9 9 9 M 9 ,.M 8 4 w 3 9 4 8 9 8  .9 a 7.9 4 ,.4 4 3 t * 9 8 8 8  .",
", 9 9 9  .a a 9 a 9 M 8 M 9 9 4 9 : 8 5 8 9 4 9 a 8 8 D 3  .4 4 4 9 3 9 a P 9  .4 4 3 a a M  .D 9 9  .w  .M 4 4 9 4 9 4 8 8 4 a 9  . .P M P 4 4 4 M = a 8 4 8  .",
"3 9 8 9 9 a 9 a M 9 a t  .M 4 4 M = 8 9 9 9 4 8 9 M 4 M 5 D 4 4 9 8 4 8 9 9 9  .< 9 9 9 9 M  .P 9 9 7.3 P 9 M 9 9 3 8 8 8 4 8 M a D 7.a 4  .4 8 4 9 > 9 8 9 9  .",
", 9 8 9 9 9 M C 9 a 7.9 7.M 4 4 M : 9 9 9 9 9 8 8 a 9 ,.1 a 9 9 9 M 3 9 9 9 9 7.: 5 9 9 M t 9 9 9 D 0.3 ,.9 t 9 9 3 9 9 5 8 9 9 M O.O.a 9 D P M 5 9 - a 9 9 9 7.",
"% < 3 3 3 3 3 , , , , , 9 M 5 4 9 , 9 9 9 9 M 9 8 9 M %.: , , , 3 4 : 9 9 5 8 7.$ > 3 3 < , > 3 , 3 4 < 9 a a 9 M 3 8 8 8 9 9 9 9 9 9 M < 3 7 3 < 3 > 9 9 a 9 r.",
"= 9 4 4 M M 9 4 4 4 4 4 < 8 9 4 8 3 9 8 9 9 9 9 9 a  .= 9 9 4 4 8  ., 9 8 4 9 %.> 4 4 4 4 4 4 8 8 M 8 M 4 3 9 4 M , a P P M  .9 9 9 a 3 9 9 9 8 4 9 4 9 9 9 9 r.",
", 9 4 a M 3 4 3 3 4 3 3 8 , 9 9 9 < 8 9 9 9 4 9 9 M > M 9 9 4 8 4 M 3 M 4 9 8 7.3 M 4 4 4 4 3 4 4 9 3 3 9 4 , 8 9 3 f.d.O.P %.4 8 M , M 9 9 4 8 4 9 4 9 9 a 9 7.",
"< 9 9 4 3 3 4 3 3 3 3 3 3 4 < 8  .3 8 8 9 9 w a M , M a 9 8 8 4 4 a 3 M M  .D  .9 9 8 4 4 3 4 4 4 4 3 3 3 9 3 3 7., a ,.9 9 %.3 M 3 M a a  .a 5 4 8 4 9 9 9 9 7.",
", 8 4 4 4 4 4 3 3 3 3 3 3 3 3 4 : 3 4 8 9 9  .= : P M a M M a t 4 :.4 5 9 D P 7.9 8 4 4 4 4 4 4 4 4 4 4 9 4 3 5 > , a P 9 9 %.= =  .M M 9  .9 4 8 a 3 9 a M 9 r.",
"* < 3 < , 3 , , , < 1 , , , , 1 * : 3 3 4 4 4 * * 4 8 5 5 , 4 3 9 9 , 9 9 8  .x.= 4 4 3 , 3 < , < 3 3 , > 3 , 1 = * 3 4 4 8 9 * * 4 3 4 5 4 3 4 4 w , a M M 9 r.",
"% 8 8 8 a 4 O.,.,.7.,.R O.M 9 4 M 3 ,.D d.v.3 3 9 8 9 3 3 3 4 3 3 4 = a 5 9 8  .* D P a M 9 a  .D D 9 4 3 9 9 8 9 3 f.,.f.l.5 , 4 3 3 9 5 3 3 8 4 9 , 9 9 9 M 0.",
"8 M a 9 D M j. .M 9 4 4 4 3 4 4  .3 d.,.f.,.P 8 4 4 4 3 4 4 4 4 3 5 3 t 9 8 9  ., M M M M M M M M M 8 4 4 4 4 4 ! 3 d.,.j.,.,.9 9 8 9 4 4 4 9 4 4 8 3 9 9 9 M O.",
"9 M 9 8 a a 7.8 4 9 9 8 3 3 3 4  .3 f.,.,.,. .4 8 4 4 4 4 4 3 4 3 4 4 9 9 9 9  .= M M M  .! 8 M a a 9 4 4 8 4 4 7.: f.d.f.d. . .a 9 4 3 3 3 4 4 4 t - M 9 9 9  .",
"9 M 8 4 9 ! ,.a 4 4  .8 3 < 3 4  .9 d.,.,.,.M 8 4 4 4 3 4 4 3 4 3 4 3 9 9 9 9 7., M M M P 9 8 a M a 9 8 4 4 4 4  .= d.d.d.0. .9 M 8 4 3 3 3 3 3 4 9 = M 9 9 9  .",
"3 M 8 3 9 M  .,.,.,.:.a 4 4 9 t %., O.h.7.0.| 8 a 9 9 4 8 4 3 4 4 t , 9 a M M r.3 M M M M M 9  .P M 9 9 8 4 4 M l.:  .0.,.j.7.4  . .9 9 8 4 4 4 4  .= D M M a b.",
"9 9  . .O.9 , 4 3 3 3 , : : , 3 = * < 4 > - > * = - = = > , > > - - * : > : = > 3 M M M P M $ > , 3 < 3 3 < < 4 = & , 4 8 4 > = = 3 3 , : > > , , , = * = : 3 3 ",
"8 a 9 f.9 t M 9 4 5 4 4 4 4 3 w * = D a  .D 4 % > f.P P P C R ,.a 8 4 4 8 4 4 9 4 a M M M 4 9 D 9 M M 9 M 9 4 M * % M 9 9 P 5 $ ,  .M  .,.,. . .P t M 8 9 9 8  .",
"9 ,.O.D 9 9 M 4 4 M 4 9 8 9 9 =  .,  .8 M 9 C P M M  . .M 4 4 8 4 4 8 4 8 4 4 M 3 M a M a 4 M 8 4 a 8 3 3 M ! : 9 ,  .:.9 9 a 9 9 9 P 9 9 4 4 4 5 8 8 9 8 8 4 ! ",
"3  .a P a 5 4 4 4 ,.M 8 9 ! * a b.3 M 4 9 9 9 ,. .M 9 P 9 4 8 4 4 3 4 4 4 4 4 t 3 M M M M 5  .8 4 ~ 3 , a %.* M 7.4 7.D 9 9 9 ,.M 9 4 M 8 4 3 4 4 8 4 4 9 9 4  .",
"< 9 M a a 3  .9 9 9 8 3 t < D a l.4 M 4 9 M w 7.M  .M 4 9 9 9 8 4 4 4 4 4 3 4 9 8 9 M D M 9 8 9 4 9 4 9 %.= D M 7.9 P D 9 a %. .P M 4 9 P 9 4 8 4 9 9 4 9 8 5  .",
"3 9 9 9 9 3 O.D a a t M 3  .M a 0.8 a 4 3 a  .7.a a M a t a M a 9 4 5 9 3 5 8 M 3 M M 9 9 w , 4 9 9 9 | 3 M a a ,.3 a 9 9 M r.4  .M 9 3 a M D M M M C a 9 4 9 %.",
"8 9 M a 9 4 3 4 3 3 8 , M P ,.a 7.4 a 4 3 D !  .M D 8 8 3 3 8 4 4 5 $ > : 3 4 3 4 a 4 3 a 9 $ , < , , = O.M a a  .> 9 9 M 7.%.8 M M M 9 3 3 4 4 4 4 * < , > < 4 ",
"9 9 M 9 9 5 ,.M 9 8 8 5 M D O.M 7.4 9 3 9 M 9 7.M D 9 8 4 O.P a M 7.3 M M 9 9 M 8 9 8 3 M 9 D M 9 4 4 3  .a 9 M  .3 9 M M M  .P  . . .9 4 P M M M  .4 M a M a  .",
"3 9 9 9 9 9 ,.a 9 9 8 3 a  .O.a 7.3 9 9 9 a 5 ,. .M 8 9 9 M 9 9 9 7.3 a 9 9 9 ! 3 a 4 3 9 9 :. . .9 < 4 9 a 9  . .4 a a 4 9 M 0.7.j.M a 1 M a M M 7.3 M M a M l.",
", 9 9 9 a M  .9 8 4 9 4 9 M M 9 %., a 9 9 9 5 :.D 9 4 P 3 M 8 4 9 ,.3 9 8 8 9  .a 9 3 3 9 t j. .P 4 4 4 9 9 a M ,.3 9 8 4 M a ,. .M  .9 M M 9 9 M  .3 M a a 9 r.",
"3 9 9 4 9 7. .9 8 4 8 9 9 9 9 9  .> a 9 9 9  . .P a 9 P , P 9 D  .,.4 M a 9 M  .M 9 3 3 K M j. .M 4 8 4 ,.D 9 a :.3 M a D J M  . .M 9 9 9 M 9 a P  .4 M a M M b.",
"3 9 9 4 8 M M 4 5 3 w 3 9 9 9 a ,.* 3 4 4 9 4 < t 4 4 M = < 4 4 8 t * 5 4 3 5 4 8 8 3 a M 5 4 5 8 4 4 - O.M a a 7.= 3 4 4 8 9 , 9 3 3 t = , 4 4 4 M * 4 8 4 3 ! ",
"4 8 9 4 9 w 9 a P a a , a 9 8 9  ., 9 9 9 a 8 3 4 8 9 9 4 4 9 M a 4 4 9 4 3 3 9 8 9 a 9 M 4 3 9 a 9 M , 9 a 9 9 r.= 9 a 9 M 9 9 8 3 3 4 3 4 4 4 4 4 8 4 3 , < 4 ",
"3 8 4 4 9 9 M 9 P D O., M 9 9 9 ! 3 9 8 9 9 a 9 a a 9 4 8 8 8 4 4 4 4 4 4 3 3  ., M 9 9 9 4 a M 9  .~ 5 M 9 9 9 ,.8 9 9 M 8 9 O.M 8 4 8 8 4 8 8 8 4 4 4 4 4 4 4 ",
"3 8 4 4 5 5 9 9 9 9 P 4 M 9 8 8  .4 9 8 9 4 9 9 a 9 4 4 8 9 4 3 4 3 3 3 3 , <  ., 9 9 4 8 5 M a  .O.,.1 9 9 9 t 7.4 8 9 4 4 8 a 4 4 4 8 8 M 3 3 8 4 4 3 4 4 4 9 ",
"< 8 4 3 9 9 P 9 4 9 9 5 ~ M 4 8  .3 9 9 9 5 4 9 8 9 8 9 8 4 4 3 3 3 3 < < < < 9 4 M 4 3 9 5 t 9 9  .O.1 9 9 9 a 7.4 5 4 4 9 4 4 4 4 4 4 8 9 , 4 4 4 4 4 4 4 4 9 ",
"< M 9 4 9 9 D M 9 P M 9  .A 8 9  .3 9 a a 8 4 8 M a C a 9 8 8 5 8 a 9 8 4 4 3 ! 3 M 9 8 8 9 M ,.D 9  .4 9 9 M M l.> M 9 9 8 4 4 4 8 4 4 9 4 8 9 5 4 4 4 4 8 8 M ",
"$ > > 3 3 , < 8 8 9 M > , , 4 4 4 = 4 , = > 3 4 4 , = > , 3 4 3 4 3 = < 4 4 3 4 # , : 8 9 , = > 9 9 t : 3 8 4 < , $ 3 4 , , < , 3 3 8 9 < 3 4 , = : > 4 5 3 4 4 ",
"3 M M M M P M 9 9 8 9 M 9 8 9 9 4 4 8 8 8 8 w O. .O.P ,., f.C M M 0.>  . .C a  .8 ,.O.O. .O.7.a. .M 9 f.P a 9 8 8 9 M D a D ! 3  .~  .O.4 f.M a 8 M , a 9 M a r.",
"3 a M a a 9 a 9 M M 9 9 8 8 4 4 9 4 8 4 4 4 9 M j. .M  .4 7.M 9 9 :., O.4 3 9 :.4 7.M 9 a 9 M 9 4 9 M 0.M 9 4 4 8 4 9 9 8 9 ! 3 M C 7.:. .7.M 9 9 M 5 P M M 9 l.",
"3 a M M M M M M M M 8 9 9 a 8 4 4 4 4 8 4 4 M 9 0.O.M  .t 7.M a  . .8  .D 4 9  .9 ,.P 9 9 9 4 3 4 9 a M ,.8 4 4 8 4 4 4 8 4 %.a M  .,.O.! l.P a 9 M 9  .7. .a r.",
"8 M M M  .M M a M a 9 9 9 9 9 4 4 9 4 4 4 4 w 9  .M 9 O.M ,.M 9 M  .a ,.f.M 9 P 9 P 9 9 9 9 9 8 9 8 9 9 M 9 4 8 4 4 P 9 4 4 %.a M  . .f.w 0.M 9 9 a 3 M M M a 0.",
"8 C P M  .O.7.D P D M P M M 9 M M M 9 4 8  .! P a 4 8 ,.4  . .M P l.8 O.A d.D  .3 P  .P O. .a M M M P ,.P  .a M M a D 9 9  .%.8 M M 7.M 6 7.,. .M %.3 M M M a ,.",
": 8 4 8 a , = : 3 8 M : 3 3 > > 3 > 4 4 4 4 > ,.9 4 3 ,., = , < , 3 , ,.4 D O.:.$ 3 8 9 4 > 3 8 3 8 M , 9 9 , : > : 5 4 4 < : 8 M M  .2.4 , 4 3 3 < 3 M M M a l.",
"9 M M 0  .9 D M M M  .a j.7. .9 M 4 9 M O. . .O.a 4 3  .3 P M 9 8 ! <  .4 9 ,.7.3 D  .J M 9 M 9 9 9 O.a ~ 9 9 9 M 4 9 a 9 M M 4 M M  .D 9 P a 9 4 9 4 M ,.C a  .",
"4 M t 9 M  .a M a M P  .z.9 4 8 C 4 9 9 8 P %.,.a 8 4 D 9  .8 3 4 ! 4 M 3 P P 7., M  .9 M M M 9 t a P !  .M 8 9 M 3 9 9 M M ! 9 M C M M M ,.M 9 4 8 5 9  .M 9 7.",
"9 a 7.t M t M M M M 7.w 7.9 4 8 9 9 a 8 3 9  .P a 4 3 D 9  .4 3 4 M 3 M 4 j.M 7.< a a 3 9 ! M M a 9 7.5 M M 8 9 w 3 9 9 M a 7.9 M a a P M P 9 9 8 9 4 M C M 9 ! ",
"4 9  .9 9 9 M 9 M a l.9 ,. .a 8 w 3 f. .4 8 M P 9 3 < A w M 8 4 4 9 4 D P D t P 3 9 9 a D M D 9 9 9 P M  .7.9 9 M , 9 9 9 a  .9 M a M  .M P 9 9 9 9 9 M  .M M  .",
", 9 4 3 4 3 8 8 9 M ! > 7.M 8 4 :.3  .P 9 8 a  .4 3 8 7.3 9 8 4 3 4 , a 9 9 9 7., 4 5 9 9 1 4 4 8 8  .3 7.D M 9 ! : 9 9 9 9 M 4 a M M P 4 9 4 4 , 4 >  . .C a 7.",
"3 4 8 8 8 9 8 3 3 3 < 3 4 M 9 4  .3 9 9 M a M  .8 3 O.9 < 9 8 4 9 9 , a 9 9 9  ., 3 4 3 3 3 3 3 4 3 3 4 9 7.9 9 t > 8 9 9 9 9 M 9 M  .M 8 M 9 9 8 P < M M M M  .",
"3 M 4 9 8 3 4 4 4 4 4 4 4 4 7.9  .3 9 a 9 M M 9 a  .5 3 M 9 4 4 9  .3 a 9 9 9  .3 4 4 4 4 4 4 4 3 4 8 3 8 , 9 8 9 3 8 9 9 9 8 M 9  .M 4 M 9 M 9 9 0.3 M C M  .M ",
"9 9 8 4 4 4 8 8 4 4 4 4 4 4 4 a M 4 9 a a a 4 9  .5 $ M 8 4 4 4 8 7.< 9 9 9 M  ., 8 M 4 4 4 4 4 4 4 4 3 4 4 = 9 w 4 8 4 9 9 9 M M ! 8  .a 9 a 5 a P 3 M M M 7.M ",
"9 9 4 4 4 3 a M 4 4 4 4 4 4 3 4  .4 a 9 M 9 M 4 9 > P 8 4 4 4 8 8  .3 a 9 9 M 7.< 9 a 8 4 4 4 4 8 4 4 4 4 3 4 >  .3 9 9 9 9  .9 w 9 ,.M a 9 9 9 9 :.3 a O.j. . .",
"t  .P M 9 9 M  .8 4 4 4 4 4 4 9 = 3 M M M M 7.= > ,.,.9 9 M 8 9 9 p.3 M M 9 a r.4 P 8 4 4 4 8 9 M 8 8 9 9 a 9 M = 3 9 9 9 9 7.= :  .M M a 9 a a 9  .5 j.l.,.4 l.",
"* 4 , 4 4 4 , , , 8 3 < > - : > = * , 3 3 3 3 % : M 9 8 9 3 4 4 , 3 < M 9 M a 7.$ : 3 4 4 3 , - , 3 1 = = = , 3 = * 4 8 4 M 5 $ * 3 8 4 4 3 4 < , 3 3 l.9 4 9 v.",
"< d.d.f.P t R  . . .M M P M 9 M  .4 h.d.,.j.4 4 9 9 9 9 9 4 8 4 4 8 4  .3 8 M  .* M  . . .M a M R  .M 9 9 9 8 9  ., ,.0.d.z.t 3 9 9 8 8 8 4 4 8 4 4 9 ,.4 4 3 z.",
"a 7.M M M w O.P M M M 9 7.9 4 8 M 3 d.d.,.,.7.9 8 4 4 8 4 4 4 4 3 4 4 M 4 3 9 ! 3 M M  .J ! P M M a  .M 4 8 9 4 ! 4 0.,.f.f.7.9 M 9 8 4 8 4 9 9 3 9 9 7.4 3 3 7.",
"P M M 8 C w 7.P M O.M O.M 4 4 4 M , f.7.d.f.P M 9 8 4 4 8 4 4 8 3 4 3 P 4 3 4 M 3 M M ,.O.!  .M M a  .a 9 9 9 4 | 4 d.,.d.d.:.9 9 9 8 4 8 8 9 9 4 9 9 7.4 4 3 j.",
"P 9 9 4 a M ,.C 2.P l.P 4 4 3 4 ! 3 ,.,.d.,. .M 9 4 4 9 4 4 5 3 < 4 4  .8 3 4 M 9 M M j.O.M f.P M M 9 4  .P 9 8 7., d.d.f.,.7.8 4 4 4 8 8 4 4 4 3 8 8 7.9 4 a 7.",
":.9 4 3 9  .P ,.,.O.j.l.O.R M C ! = a j.7.:. .3 M 9 9 t 9 3 4 4 4 9 = D P M P 7.8 M M 7. .M  .7.l.l.:.,.,.7.M %.t.* a ,.d.j.r.< M  . .M C 9 8 9 9 9 ,  .l.l.d.b.",
"P a 4 3 M ! < 4 < < , > > : : , = * < 3 , 3 > = = 4 4 3 , < 3 4 8 , < 3 , , , 3 3  .M 7.M 9 > , , : > , , , , 3 * * : 3 4 9 , = * < 3 , < 3 < < < , < < , * = > ",
"a 9 3 3 7.4 8 M 9 8 8 4 3 3 M 4 * = 9 9 9 M 9 : 4 7.P P M f.M M M P D t 9 5 4 M 3  .P 7.D 9 9 9 4 9 4 4 8 4 4 9 = * 9 9 M a 9 = 3 P a a 9 9 8 9 8 4 4 9 9 M 8  .",
"9 9 3 3 a 5  .9 4 3 3 3 3 4 5 *  .3 8 8 9 M M ,. .8 j.7.a  .4 4 4 3 3 3 3 3 4 ! 3 M 7.a D 9 M 9 8 4 4 4 3 9 9 3  ., 9 9 9 9 9  . .3 M 9 9 9 9 4 8 8 9 t 9 8 4  .",
"M 9 3 3 a 9 :.9 4 3 3 < 4 4 , D l.3 9 4 9 M  .7. .C 3 ,. .M 8 9 4 3 3 4 4 4 4 t 5  . .8 a M 9 8 8 4 4 4 3 9 , M  .5  .M 9 M  .P M  .,  .9 9 9 4 8 8 4 9 9 3 4 M ",
"8 M O.O.O.t ,.M 4 3 3 4 4 3 ,.P l., 9 9 P P %.,.P P M 3 ,.a 9 9 4 4 M 4 4 4 4 8 8  .9 4 0 M M 5 8 4 4 4 9 7 7.M 7.8 P P a a  .M a a M , M 9 9 8 8 8 4 9 8 8 9 t ",
"3 a a M M 9 P C M M 9 1 4  .9 a l.> M 9 M D P 0.M M a 9 < 9 9 9 8 4 4 4 3 3 3 4 4 M 8 3 9 ! 4 5 4 4 9 5 3  .9 8 7.4 a  .7.a w  .M 9 9 a 3 4 M M 9 9 8 4 8 9 4 9 ",
", 9 9 9  .9 9 8 3 3 4 , P M 4 4 b.< t 9 a a 9 ,.P M 4 a 1 8 a 9 9 P = 8 7 3 3 M , M 4 3 9 w 8 3 , , , = D M 9 4 ,.3 9 M  .P w P M 9 4 9 4 M P 9 9 P = 9 9 a a M ",
"> 9 M M M  . .a 8 8 C 3 ,.4 3 4 j.4 M 9 9 M t 7.M 9 8 a 2 M t M M  .8 M a a a 7.3 M C O.D w 7.M 8 8 8 3 M M 8 4  .5  .M a ,. .M P 9 8 9 5 P a M M  .9 M a M M b.",
"> M M M D !  .M 9 8 C 3 P 9 3 3 l.4 9 9 a M M :.M 8 9 9 1 M M 9 a  .4 a 9 9 a  .8 ,.7.7.7. .j. .8 8 8 3 M 9 9 9  .5 D M 7.M 7.9  .9 9 9 9 M M M M 0.4 M M a a b.",
", 9 a 9 M w  .a t 8 M 3 ,.M 5 4 l.3 9 9 a 9 4 ,.M 9 9 9 , 9 a t 9 P 5 M 9 a 9  .4 a  .a 4  .b.M 9 4 8 3 M a 9 M  .3 9  . .D :.M P M 9 9 9 O.M 9 a b.* M a a a r.",
"4 9 9 9 M 5 O.M M 9 9 4 P  .9 9 :.< P 9 9 9 ! P P M 9 M 1 a M D 9  .3 D P a a 7.8 a P a 9 ~ l.7.M 9 9 9 9 9 9 a :., D P  .O.7.M P M 9 a 9 M a 9 M 0.= M M M a l.",
"3 9 9 9 M w 1 8 9 8 M < 9 M a a :.& , > 4 3 > = 4 9 9 4 * , 3 > , 4 = 1 > > 3 3 4 P M  .M w 3 9 3 , < : M M a 9 7.* , 4 3 t 1 > 4 4 3 4 * , 3 3 3 9 = 4 3 4 4 3 ",
"4 9 9 9 M 4 8 a D P ,.4 9 9 a M %., a P ,.M 8 9 9 9 9 9 4 4 9 8 8 4 4 4 < 3 4 4 8 M t a M 9 M M D M  .= a a 9 9 P < 9 M 9 9 9 9 P 9 9 8 4 4 8 4 4 4 4 5 8 8 4 9 ",
"< 9 4 9 M 4 a 9 9 9 a 3 M 9 M a 7., ,.P M 4 4 9  .8 9 4 4 4 4 4 3 4 9 8 4 4 4 5 3 a 9 9 M M M 9 a 9 P 3 a 9 9 9  .1 8 9 8 4 4  .M 4 8 4 M 4 8 4 4 4 4 4 8 4 4 M ",
"= a 3 8 9 9 M 9 a 9 9 > M 9 9 a 7.> P 9 9 8 8 9 9 8 4 3 3 3 4 4 < 4 4 4 4 4 4 4 3 a 9 9 a ! M 9 9 9 M 9 9 a 9 9  ., a 9 4 4 8 9 4 4 4 4 8 a 4 4 3 4 4 4 4 4 4 ! ",
", 9 4 4 9 9 D 9 9 a 9 , M 9 9 9 %.= a 9 8 8 4 4 9 4 3 4 4 4 3 3 3 3 4 4 4 4 4 9 3 9 9 9 M 9 M 9 a a a 9 9 9 M 9 M 3 9 a 9 9 M 9 9 9 4 4 8 9 4 4 4 4 3 4 4 4 4 M ",
",  .R P M w D C P M P 3 a 8 9 a :.* M M ,.d.R O.,.,.:.P M a 9 4 3 3 4 4 4 4 4 w , M 9 M ,.M  .M M  .7.4 a a a M  .= M P  .,. .D M 9 a 9 M a 9 4 8 4 4 8 4 4 3 ! ",
"  + + + @ X O @ O O +   O O O O O     . O O O O O + O X O o O O O O O O O O O O   + @ + @ o O + O O O   O O O O O   X   o O . .     o   O . X O O O + + + + + O "
};
