/* XPM */
static char *_aa2361caa734a9d950f191432654009Cl0PDk77HCz6lwC8[] = {
/* columns rows colors chars-per-pixel */
"80 80 254 2 ",
"   c #040403",
".  c #0B0403",
"X  c #030A05",
"o  c #0C0A04",
"O  c #040509",
"+  c #0B050A",
"@  c #040A0A",
"#  c #0C0B0B",
"$  c #130402",
"%  c #1A0401",
"&  c #130A04",
"*  c #1B0B03",
"=  c #12060A",
"-  c #130C0C",
";  c #1A0C0B",
":  c #1C070E",
">  c #1B1106",
",  c #14110D",
"<  c #1B130C",
"1  c #141006",
"2  c #0D0C11",
"3  c #130D11",
"4  c #190E11",
"5  c #151313",
"6  c #1B1413",
"7  c #1D1A13",
"8  c #1D1A19",
"9  c #0C1110",
"0  c #230200",
"q  c #230C04",
"w  c #290B06",
"e  c #350E04",
"r  c #2D120D",
"t  c #27140A",
"y  c #36150B",
"u  c #211313",
"i  c #221B14",
"p  c #261B19",
"a  c #351A12",
"s  c #3C1C13",
"d  c #351A15",
"f  c #2C241C",
"g  c #282418",
"h  c #372518",
"j  c #31311D",
"k  c #2F220F",
"l  c #252322",
"z  c #2A2727",
"x  c #342B24",
"c  c #382B26",
"v  c #3B342A",
"b  c #383526",
"n  c #2D2E31",
"m  c #353639",
"M  c #383736",
"N  c #322F28",
"B  c #491B0A",
"V  c #431D13",
"C  c #4A1D15",
"Z  c #521E11",
"A  c #531707",
"S  c #58250C",
"D  c #442314",
"F  c #4C2214",
"G  c #45231A",
"H  c #4D231A",
"J  c #482A1A",
"K  c #532314",
"L  c #5B2314",
"P  c #54261A",
"I  c #5B261A",
"U  c #542A1B",
"Y  c #5C2B1C",
"T  c #5A2A15",
"R  c #57331C",
"E  c #45200E",
"W  c #632A14",
"Q  c #632C1C",
"!  c #6B2D1B",
"~  c #672717",
"^  c #6C311D",
"/  c #67361B",
"(  c #73341E",
")  c #79371D",
"_  c #6A2814",
"`  c #462A25",
"'  c #522B23",
"]  c #5A2E24",
"[  c #45342B",
"{  c #5A3324",
"}  c #573628",
"|  c #473B35",
" . c #583A3A",
".. c #622E22",
"X. c #6B2C21",
"o. c #702E22",
"O. c #643224",
"+. c #6B3323",
"@. c #6D3529",
"#. c #6D3B2D",
"$. c #67382A",
"%. c #733523",
"&. c #753B24",
"*. c #7C3B25",
"=. c #743B2B",
"-. c #7C3C2B",
";. c #773627",
":. c #673C34",
">. c #7A3E32",
",. c #454237",
"<. c #544637",
"1. c #69412C",
"2. c #75412C",
"3. c #7C432C",
"4. c #794627",
"5. c #6C4333",
"6. c #6A4935",
"7. c #7C4433",
"8. c #764938",
"9. c #7D533B",
"0. c #6D5139",
"q. c #3E3F43",
"w. c #3E4347",
"e. c #424346",
"r. c #42464A",
"t. c #454A4D",
"y. c #4A4B4C",
"u. c #4B4544",
"i. c #534745",
"p. c #474C51",
"a. c #4A4E52",
"s. c #524E52",
"d. c #4D5256",
"f. c #4F5459",
"g. c #525456",
"h. c #52565A",
"j. c #555A5E",
"k. c #5A5C5E",
"l. c #5C5755",
"z. c #51524D",
"x. c #674A44",
"c. c #7B5445",
"v. c #665C58",
"b. c #755349",
"n. c #7C6758",
"m. c #575C60",
"M. c #595E62",
"N. c #585C65",
"B. c #615F60",
"V. c #5C6165",
"C. c #5E6469",
"Z. c #5B6469",
"A. c #616466",
"S. c #61666B",
"D. c #64696D",
"F. c #6A6C6D",
"G. c #6B6464",
"H. c #786A64",
"J. c #656B71",
"K. c #696E72",
"L. c #636770",
"P. c #6C7174",
"I. c #7C766E",
"U. c #5C605F",
"Y. c #8C3A1E",
"T. c #833D2B",
"R. c #853C23",
"E. c #8D3D2A",
"W. c #87411F",
"Q. c #834225",
"!. c #84432C",
"~. c #8B442C",
"^. c #8B4A2C",
"/. c #8B4323",
"(. c #93472A",
"). c #844432",
"_. c #8B4532",
"`. c #844B35",
"'. c #8B4C34",
"]. c #8C4D3A",
"[. c #844B3A",
"{. c #934C33",
"}. c #964A37",
"|. c #8C5235",
" X c #8D533B",
".X c #88573A",
"XX c #945234",
"oX c #93533B",
"OX c #9C533C",
"+X c #9A5A3C",
"@X c #985638",
"#X c #8F5C2D",
"$X c #A3553D",
"%X c #A6593C",
"&X c #B2583D",
"*X c #9C653D",
"=X c #AA613E",
"-X c #8A5746",
";X c #9C5D42",
":X c #965845",
">X c #935A50",
",X c #A35B43",
"<X c #A75A45",
"1X c #886249",
"2X c #996448",
"3X c #976654",
"4X c #9A745B",
"5X c #8D6A53",
"6X c #A26244",
"7X c #AB6445",
"8X c #A4644A",
"9X c #A46B4C",
"0X c #AB684A",
"qX c #B5674B",
"wX c #A66B53",
"eX c #BA6A54",
"rX c #A77658",
"tX c #B97758",
"yX c #AF714E",
"uX c #877668",
"iX c #987265",
"pX c #A87D67",
"aX c #B87C65",
"sX c #C1775A",
"dX c #C06C4E",
"fX c #C87A61",
"gX c #B8835C",
"hX c #AF835C",
"jX c #9C826B",
"kX c #A98366",
"lX c #BD8D62",
"zX c #B68565",
"xX c #B38B71",
"cX c #C68A66",
"vX c #C79569",
"bX c #C68C73",
"nX c #CA9677",
"mX c #D59574",
"MX c #D5A678",
"NX c #D3A976",
"BX c #E1A17E",
"VX c #B29284",
"CX c #9B9589",
"ZX c #CF9783",
"AX c #E49D84",
"SX c #D8B795",
"DX c #D8AF84",
"FX c #E4B48E",
"GX c #D5BBA0",
"HX c #EAC895",
"JX c #E6C38B",
"KX c #F7D9AD",
"LX c #EAD0AE",
"PX c #F4E5C4",
/* pixels */
"m.J.D.J.D.S.V.C.C.V.V.M.M.M.m.M.D.V.m.m.m.j.k.C.J.D.D.D.d.V.D.D.A.M.d.G.-X3XH.A.h.S.V.C.V.C.V.V.V.M.M.V.M.D.D.V.N.m.M.M.M.j.j.h.Z.C.C.C.a.N.C.V.m.j.a.V.V.S.C.S.",
"C.C.j.j.M.V.M.m.M.M.M.M.m.j.j.j.S.m.h.m.j.h.k.V.D.C.S.D.k.S.V.j.M.G.>X;X=XsXDXGXuXD.V.M.M.N.M.V.M.j.M.M.C.M.j.h.j.h.j.j.h.h.h.C.S.m.V.C.V.D.V.M.j.V.a.V.j.j.M.J.",
"Z.M.j.j.M.V.D.V.M.M.M.M.j.j.j.j.j.h.j.M.V.j.M.Z.M.m.M.C.V.A.M.j.n.-X'.XXXX7XnXKXPXCXH.G.M.M.M.M.V.S.M.M.D.M.j.h.j.h.h.h.j.j.h.J.V.m.M.C.V.D.V.m.m.V.e.V.V.M.h.J.",
"C.M.j.j.V.V.S.V.M.M.M.M.M.M.j.j.j.j.j.j.j.j.M.S.M.m.j.V.M.C.M.n.[.).!.^.(.+XrXDXPXPXPXuXG.m.V.M.V.C.M.k.V.j.h.h.h.h.h.h.j.j.h.C.M.j.M.S.V.S.V.M.m.V.t.C.C.m.h.K.",
"M.D.D.D.C.V.V.S.V.M.M.V.V.M.M.h.M.m.j.j.j.j.V.D.V.M.j.V.V.G.rX{.;._.~.R.Q.;X2XkXSXPXPXHXI.V.M.V.V.M.M.M.M.V.V.V.V.V.j.j.m.M.S.C.V.j.V.K.h.V.S.V.m.D.d.V.V.j.j.D.",
"w.j.m.M.j.h.h.d.d.h.V.d.a.a.h.h.j.a.h.d.a.f.a.C.V.M.j.S.d.iXqXY.T._.~.!.^.;X2XrXlXSXSXKXSXuXh.M.f.f.h.h.V.m.m.V.m.a.h.d.a.h.d.C.M.j.L.D.h.e.a.j.f.h.a.V.M.m.j.S.",
"h.V.V.V.C.h.V.V.C.V.D.h.C.V.M.m.M.f.M.C.M.V.j.C.j.h.M.C.k.pX$XE.T.&.Q.^.@X+X;XwXcXDXDXHXHXSXI.V.C.V.D.h.D.D.D.V.V.h.V.V.C.V.M.S.M.N.D.V.h.V.V.j.j.V.d.M.M.m.M.C.",
"h.M.M.V.V.A.M.M.M.M.V.k.S.M.V.m.M.h.m.m.M.m.j.V.j.h.V.C.H.tX(.Y.!.!.|.^.@X6X7X8XtXcXMXFXHXKXGXF.M.M.V.M.D.V.m.j.V.h.M.j.m.M.m.S.M.V.D.M.j.D.j.j.j.V.r.M.m.k.m.S.",
"d.M.M.M.S.V.V.M.V.M.V.m.C.M.M.j.M.p.m.k.m.M.j.M.V.m.m.S.pXqXY.Y.!.`.'.|.+X6X8X6X0XgXvXNXJXHXLXVXM.M.S.V.D.V.j.j.M.h.M.j.m.m.j.V.M.S.S.C.V.C.j.m.j.V.t.V.m.j.m.S.",
"h.M.m.M.M.V.M.V.V.M.V.V.S.V.j.j.V.t.m.M.M.M.j.m.M.V.j.G.aX$XY.Y.-.`. X;X6X6X6X6X8XtXvXNXNXNXJXSXF.M.D.h.C.M.V.M.M.f.m.m.M.j.m.V.V.C.D.V.j.S.j.m.j.M.a.M.m.M.M.S.",
"d.M.m.M.M.M.V.C.M.V.D.M.D.V.j.j.V.p.M.M.M.M.M.k.m.V.M.uXaX(.R.R.3.`.|.+X6X6X2X2X2XzXlXvXNXNXDXFXxXC.D.h.D.M.V.m.M.h.M.M.k.m.M.M.C.D.D.V.M.C.C.V.k.M.y.V.M.M.M.D.",
"w.f.h.j.h.h.h.d.d.d.d.d.M.V.k.j.M.d.M.M.M.M.V.M.m.M.V.kXtX}.T.-.-X-X:X;X6X9X9X2X3XkXxXvXnXvXNXFXxXh.j.g.M.V.M.M.V.h.m.m.m.M.M.M.M.M.M.C.f.h.m.h.f.h.a.M.M.V.M.F.",
"t.M.j.j.V.V.M.j.j.j.j.j.d.m.M.j.m.h.M.m.M.M.M.V.M.V.F.pXaXoX@.:.:.c.2X9X7X9X2X9.0.0.1XkXnXgXcXFXjXC.m.V.j.h.M.j.V.d.V.C.C.V.S.M.M.M.M.h.M.m.M.m.j.M.j.M.M.M.M.F.",
"d.M.j.V.V.h.j.h.j.j.h.h.j.d.M.M.M.f.m.M.M.M.j.M.M.V.v.zXgX7.C V s { .X9XyX9X.XR y e E 9.zXvXcXNXjXM.h.h.M.j.d.m.M.h.J.J.D.C.D.k.m.V.d.V.M.M.m.m.j.M.h.M.M.V.M.D.",
"f.M.M.j.h.h.j.h.h.h.h.h.h.j.d.M.S.h.m.m.M.M.V.V.V.d.iXcXhXR r * t a $.:XyX8X7.F y s U 1.2XzXlXvXuXk.h.j.h.M.h.h.D.d.V.D.M.V.D.h.V.h.V.V.V.S.V.k.j.m.h.M.M.M.M.D.",
"d.m.j.j.j.j.j.h.j.j.h.h.h.h.h.j.t.h.j.m.M.M.S.t.p.C.pXhXrXK h a r r Y  X,X+X3.P J ` } 5.2XzXlXlXuXm.j.j.m.j.h.k.a.d.V.V.M.M.D.t.r.S.V.V.M.S.M.j.m.V.h.M.V.V.M.F.",
"r.h.h.d.d.h.d.d.d.d.g.d.d.d.d.g.r.p.h.h.j.j.j.r.r.k.4XlXwXT H ' G s F `.+X;X).T $.c.8.$.`.rXlXgXn.h.h.d.a.h.d.g.t.r.h.j.j.m.M.r.r.j.h.j.k.j.d.j.j.V.d.V.V.V.M.F.",
"w.m.m.m.V.h.D.D.D.D.D.C.D.V.M.j.V.j.D.C.J.P.h.h.M.M.4XbX-XI Y 5.8.$.K 2.6X6X'.&.1.$.9.-X&.rXvXlXuXC.M.m.h.M.M.m.M.j.J.D.J.K.k.d.j.h.h.M.k.h.h.m.j.M.d.M.M.M.V.D.",
"m.V.V.M.C.V.J.S.V.M.j.j.j.h.j.j.A.h.J.D.J.D.C.m.j.j.n.aX.XY Y F ' $.T %.+X0X@X&.+.B Y +.4.9XvXlXuXV.m.j.j.j.j.j.A.h.J.D.J.D.D.M.M.m.M.j.j.j.M.j.j.m.h.M.m.M.V.D.",
"N.V.M.m.V.V.D.m.j.M.M.m.h.h.h.j.S.j.J.D.D.D.S.j.j.j.H.bX7.K P ' { 5.2.*.^.7X6X4.2XT 2X7.|.gXvXNXuXV.M.j.j.j.j.j.D.p.J.J.J.J.D.S.V.M.j.h.h.h.j.j.j.V.y.V.m.M.M.S.",
"M.V.m.j.M.A.D.V.j.j.S.m.h.f.h.j.S.m.J.D.J.D.V.m.j.j.n.xX7.Q 5.8.c.+.%.*.@XtX6X4.&.2.`. XyXlXvXMXuXM.M.m.j.j.j.j.S.t.J.J.J.D.S.M.V.m.j.h.h.h.h.h.j.M.t.V.M.M.M.S.",
"h.V.m.h.M.V.S.D.D.D.S.Z.j.j.M.V.D.d.D.J.D.D.S.m.V.B.c.bX`.3.Y I Y +.!.R.$XyX0X6X'.4.oXwXgXvXmX*X.XA.M.M.m.j.j.V.K.p.S.D.D.J.D.j.S.S.M.M.m.j.j.j.j.S.t.C.V.V.V.P.",
"M.M.S.S.D.M.d.j.h.h.h.d.t.p.d.h.t.r.f.j.a.a.a.r.t.z.1.tX|.'.7.2.2.`._.~.7XcXmXyX*X0X0XgXMXcXMX#X1Xj.f.h.h.f.d.h.t.e.d.j.m.j.a.t.t.h.h.d.p.a.a.d.d.d.r.r.t.p.h.h.",
"m.V.M.J.M.V.C.M.j.k.j.j.j.j.h.V.r.r.C.V.S.C.j.w.a.F.8.aX6X{.]. X`.'.{.<XqXsXBXyX0XyXyXtXcXnXvX*X5XV.V.M.C.M.j.V.r.w.V.M.M.C.k.w.d.S.V.S.D.D.S.S.C.M.V.M.M.M.m.S.",
"M.D.D.C.N.V.V.j.j.V.j.M.m.M.M.t.S.d.S.m.V.M.C.C.V.B.9.tX0X{.{.'.].'.OX}.0XyXyXvX0XtXtXtXcXlXcX#Xn.V.m.h.h.V.A.t.M.d.S.S.M.M.V.M.M.M.C.M.M.j.j.j.k.m.m.M.m.m.j.A.",
"f.S.V.C.V.k.j.j.j.D.V.j.M.A.w.V.P.f.V.j.M.M.M.D.S.A.0.8X%XOX{.^.oXoX) ) ~.'.A +X%X7XtXtXgXgXrX4.v.A.h.d.V.D.r.V.D.j.D.C.M.M.M.D.V.M.j.V.m.j.h.j.j.m.j.j.M.M.j.S.",
"f.M.V.V.V.h.S.M.M.M.k.h.V.f.C.V.K.m.V.m.M.V.V.D.V.S.x.2X0X(.{.{.].%.! A ! W A 4.6X6X0X6X2X9X9X4.v.M.j.M.D.t.C.V.J.M.C.C.M.V.D.S.C.V.j.M.C.M.j.m.j.M.M.m.M.m.k.S.",
"h.M.M.M.M.h.D.C.V.V.V.V.h.S.V.V.D.m.V.j.h.V.S.D.V.M.x.-XT.~.R.^. X).~ ! W =.3.|.9X+X6X+X|.2X1X2.v.M.V.S.h.V.V.V.D.h.V.M.M.V.F.j.S.V.M.h.V.V.C.V.V.V.C.V.k.j.M.D.",
"m.M.V.V.M.j.h.j.h.h.m.d.V.C.D.V.D.j.V.j.j.C.A.S.V.C. .8.7.%.&.3.[.7.#.7.-X9.-X3XwX.XoX|.3..X0.1.g.d.d.t.D.V.V.V.S.a.M.M.V.D.D.m.V.V.V.M.h.h.j.j.j.j.r.f.d.a.f.j.",
"M.M.V.M.M.k.D.V.M.m.m.k.V.C.D.V.D.j.V.h.M.V.M.D.V.C.i.' O.Y Q Q $.#.#.$.8.5.8.3X4X.X.X|.2.1.} } M.j.j.h.S.V.M.V.S.h.M.V.V.V.S.C.S.S.S.M.j.C.V.V.V.S.j.V.V.V.V.S.",
"h.M.M.M.M.M.D.V.M.M.m.h.V.S.D.V.D.h.M.M.M.N.k.D.D.V.y.r ' H { U Y P F D s H R { 0.4.`.:X7.{ k [ A.M.f.h.M.M.M.S.S.j.V.V.j.M.V.J.D.J.V.V.g.V.V.V.V.D.h.V.V.V.V.K.",
"d.M.M.k.V.C.S.M.m.k.M.j.M.V.V.M.D.d.V.M.M.M.k.S.C.M.d.t s G J J J V e } c.c.c.5.D R 1.9.1.D t u.C.j.h.h.M.M.V.V.D.h.M.m.j.V.V.D.S.V.S.M.V.V.M.M.V.S.h.V.V.V.M.F.",
"h.M.M.j.M.D.S.M.m.j.m.M.M.M.M.M.S.a.V.M.M.M.S.S.C.V.h.> & k c d r w ' 5.#.8.8.6.J r c <.` t t i.V.j.m.h.D.C.M.V.S.h.V.V.C.C.C.S.S.V.M.M.M.V.M.V.C.S.j.V.V.V.C.P.",
"h.M.M.j.m.V.V.j.k.h.V.h.M.M.M.V.D.r.h.j.j.M.j.f.U.j.g.z o & u p t w D I L I Y K s $ < f p i u u.m.j.j.y.D.V.V.V.D.t.h.j.j.m.M.d.M.h.h.V.t.d.j.j.j.V.e.j.M.j.h.A.",
"j.m.M.j.M.V.M.V.C.V.V.d.V.M.m.M.S.d.M.M.M.V.m.h.j.m.M.q.o $ : $ % d } 8.-X>X>X-X:.r p p p < < s.V.M.V.d.M.V.M.M.F.t.M.V.M.V.M.M.m.h.j.j.h.j.j.j.j.j.m.m.h.d.f.j.",
"h.m.j.j.M.M.V.M.C.V.D.d.V.M.M.M.A.h.M.m.M.M.V.M.V.V.M.t.$ * $ : : ` 6.-X3X3X3X>Xx.r ; ; < < g j.M.S.C.k.V.M.M.M.D.m.M.M.V.j.m.D.V.m.j.m.m.j.m.j.m.j.j.j.j.j.j.m.",
"h.m.j.j.k.k.M.M.M.M.C.j.V.M.m.m.S.j.M.m.M.j.M.M.V.M.k.g.o < = = = f c } $.} $.} ` t u i ; < M M.S.D.D.g.M.M.M.V.D.j.m.M.j.j.m.V.j.j.j.m.m.V.h.h.m.j.h.h.j.j.k.m.",
"f.m.j.h.M.M.C.M.j.M.M.k.A.V.j.m.S.j.M.M.M.k.j.M.m.M.m.h.l . ; o # , ; * q 0 q r p & & 6 < t y.M.V.S.D.g.M.M.M.V.D.j.k.j.j.M.j.j.j.j.j.j.m.M.d.j.j.j.j.j.j.j.j.M.",
"f.V.M.j.M.M.C.V.V.C.V.M.D.Z.M.M.S.g.M.M.V.m.m.m.V.V.V.M.w.- o # X X # & & ; ; < - , 8 i ; q j.D.C.M.S.h.M.M.V.V.K.a.V.M.V.m.m.j.j.m.j.j.M.j.m.M.k.j.j.j.j.m.m.V.",
"w.a.a.h.h.d.f.N.m.M.V.a.d.d.j.j.m.t.j.d.t.a.h.j.j.d.t.a.t.o o # # O # . o < - o # 5 8 < t h r.a.M.M.V.p.h.m.j.f.d.w.h.j.d.d.d.d.h.h.m.M.h.h.j.d.t.t.a.j.k.h.j.j.",
"j.V.V.V.V.S.V.M.M.m.M.V.M.m.M.M.j.j.m.m.m.m.V.D.D.D.C.D.y.l , o - = . & = - , o X # , < t | S.J.D.V.M.J.C.V.M.m.m.M.V.C.V.C.A.h.S.A.S.D.h.J.V.V.m.V.d.V.M.V.V.F.",
"h.V.V.V.V.M.V.M.V.V.M.M.m.m.j.j.M.j.m.j.j.j.M.V.J.S.V.S.h.N ; ; . = = = - 5 # O + 5 < & k <.v.M.j.M.V.D.V.M.j.j.m.j.M.M.m.M.A.j.V.C.D.S.S.J.V.M.M.V.j.C.V.V.M.K.",
"h.V.V.V.V.V.V.V.V.V.m.M.M.M.m.j.j.j.j.m.m.j.V.M.D.D.V.D.M.M t $ - o . O # # @ 5   8 6 $ a <.uXx.l.M.V.V.D.m.j.j.m.j.j.j.m.j.D.V.V.S.D.D.A.K.C.V.M.V.M.S.D.S.V.F.",
"m.V.V.V.S.V.V.V.V.V.M.M.M.M.M.j.j.M.j.j.j.j.V.M.C.V.M.D.V.M h q &   o # o @ @ # . ; * q h 0.jX{ ` s.M.M.V.M.j.m.j.j.V.M.j.m.D.V.V.S.S.J.V.D.V.M.M.V.h.V.V.V.V.D.",
"m.C.C.V.D.D.D.C.C.C.V.C.V.V.M.V.V.V.M.j.m.S.A.C.V.j.m.D.h.y.[ % .   X X   @ 9 @ # = * a R 0.4X6.h p | j.V.S.V.V.V.V.C.M.M.S.D.m.V.C.D.V.U.D.D.S.V.D.g.V.V.V.V.D.",
"p.m.j.m.V.d.t.p.f.m.V.t.h.h.a.a.h.a.j.j.j.j.a.D.M.j.h.D.a.x } r * 1 o o o   X X # = q s { 9.4X1X7 8 x d | g.d.p.a.p.k.j.j.f.p.j.V.V.S.D.h.d.j.h.h.d.h.V.V.V.V.K.",
"M.V.V.N.S.M.C.V.V.V.S.V.J.D.S.M.V.m.M.V.D.C.S.D.M.h.j.V.n > ` V 0 a $ . ;     # = $ w G 1.-X2X5.> 8 u h d c u.h.V.j.M.V.M.C.V.j.V.V.S.C.M.C.V.M.j.M.j.V.D.C.V.S.",
"j.V.V.M.V.S.V.V.V.V.C.S.K.M.j.m.C.j.M.M.m.C.D.D.M.j.a.M o $ } U iXxX:.% $ . . . $ q V Y 2.7.:X$.t - & [ h h i ,.j.h.M.M.V.V.A.M.V.C.V.V.V.D.V.M.j.m.k.M.S.V.M.D.",
"M.V.D.V.C.V.V.V.V.V.D.V.D.M.j.m.M.m.V.m.h.M.S.C.V.y.z & . $ } 7.nXAXZXK % $ $ $ s 8.3./ 4.[.>XD * 6 . f ` J h g M y.l.M.V.V.D.M.V.M.V.C.V.C.M.m.m.M.j.V.C.V.M.A.",
"j.M.S.M.M.M.V.M.V.V.K.M.D.S.V.m.V.h.J.S.h.M.V.j.| v <   = $ V :XcXAXAXaXB w w s 3XbXmX^.Q.`.c.w & ,   7 D ' h h p M ,.z.M.V.S.M.Z.V.V.S.V.C.M.M.M.M.m.V.S.V.V.S.",
"d.M.j.h.j.h.m.m.M.V.C.a.D.V.m.j.S.h.S.C.l.u.c ` s k o   + $ e 7.tXcXbXZX2XB B 9.bXZXAX%X^.`.} q & 6 # & } 5Xx.h x v j ,.i.k.V.j.V.V.Z.C.j.M.k.j.d.j.a.S.S.C.V.D.",
"h.j.m.m.m.M.m.h.h.h.f.h.j.V.M.j.S.h.M.v.kX1Xh c k >   @ O $ w C oX7X0XzXnX&.^ 9XbXmXmX7X'.8.y ; = 3 - $ 8.nXpXs h c b j [ | l.V.V.V.S.V.m.C.M.M.m.C.f.C.V.V.V.S.",
"j.V.j.M.m.h.j.j.j.j.j.j.m.j.D.M.S.h.V.xXMXxXh f < ;   @ O + $ y +.].+X9XtXtX%X<XfXmXsXOX>.$.; # = + # $ 9.bXbXU a h b j v [ <.z.k.S.V.j.V.M.V.M.M.D.h.V.C.V.S.V.",
"M.M.m.j.j.j.m.m.j.j.m.j.j.j.j.V.V.j.G.nXcXzXr & & -   O O     * V =. XoX@XyX7X%XqXeX,X).#.a o 9 + + 5 $ `.tXbX@.s k g b v b b ,.u.l.j.S.V.M.V.j.M.C.h.V.V.V.D.V.",
"M.M.j.j.j.h.V.V.j.j.j.j.j.j.j.j.A.j.5XaXtXwXr 4 4 o   O       . w H =.4.{.XX{.$X<X}.).=.' $ @ 9 2 + 5 $ `.tXfX].e k f N x | ,.M ,.u.V.V.V.M.M.M.M.S.h.V.D.J.S.S.",
"V.S.C.V.M.M.V.D.m.j.j.j.j.j.j.M.t.l.:X7XdX8Xw - = & o . .     . % e I ).OXXX{.{.}.T.X.H 0 . 5 @ 2 + 9 $ `.eXeXaXB a f j v v | ,.v v v y.M.M.V.V.M.S.k.J.K.D.j.K.",
"r.j.d.j.j.h.d.d.d.m.j.f.a.t.p.a.r.c.eXqXdXwXw - = $ . $ w r > . $ 0 Z :X,XOX~.T.].X.Z 0 % * . < 3 O 9 & 2.eXdXsX8.t g f x [ v N j g v <.u.h.j.d.d.h.h.K.M.j.M.P.",
"f.J.J.J.C.V.C.S.S.S.V.V.C.V.M.j.x.eXeX&XeXoX% o - $ % } c.8.5.h % w #.;X,XOX:X).:X..0 e } 1.J $ & o X * ^ <XeXeX5Xa i g x c f g i b f c i.s.k.m.j.j.M.D.j.j.h.K.",
"V.D.V.V.V.V.D.C.V.V.V.m.D.M.t.u. .<X$X&XtX2.$ o $ % D 5X3X:X3X7.0 F `.oX,X$XOX).>X1Xe / 1XrX4X} $ & o * &.qXqX<X3Xs > 7 l f i i f g g h v i.j.M.j.M.M.D.j.j.h.D.",
"C.V.V.m.C.V.D.C.V.D.V.S.V.t.e.v $.}.}.7XyXT $ o $ h -X2X_._.:X,XZ #.7.Q.$X$X~.;.7.pX/ 4.Q.2XzXpXD . o % ^ qXqX<X>Xs * 7 8 i i f f g g x g [ s.m.j.M.M.D.m.j.h.J.",
"S.M.M.j.V.V.J.C.D.C.K.C.j.e.M d ..).}.<XyXW $ o t 6.-X!._.}.(.<X&.=.&.!.{.{.R.! 3.tX*X^.W./.2XzX1Xq $ q &.<XqX}.[.G ; , 6 5 7 f p 7 x f f x | h.h.k.m.D.M.m.V.D.",
"S.M.j.h.M.S.C.D.S.D.J.K.D.r.p r Z %.{.$XtX4.% w } 2.2.*.E.}.}.~.%.%.^ !.'.*._ %.!.8XyXW.(.Y.!.2XrX6.q % ].<X<XT.7.H * 1 5 5 8 7 l l < i f f v s.M.M.d.S.K.K.D.P.",
"C.V.j.h.V.A.d.j.f.f.d.a.e.l u a P ^ ~.,XcXXXe ' 8.&.&.!.T.'.|.&.Q =.%.%.&.S B 2.'.%XtX(./.~.!.`.9XrXD 0 ].OX{.*.>.' * & 9 5 6 6 p 6 p i < f v M d.d.f.d.d.r.t.a.",
"V.M.h.h.D.h.m.V.m.m.m.a.m i u q P W ;._.0X,XO.5.=.*.3.*.'.].( / &.@.=.+.K w B @.'.{.%X%X) *.%.-.|.rX5X8.;X~.R.) >.] * o # 9 5 6 p 6 6 7 < g f N d.j.j.M.M.V.m.S.",
"M.M.h.h.V.k.S.M.j.h.h.q.l , 6 % P ~ ! *.oX:X7.@.=.-.=.&.3.-.( ( *.&.@.] 0 0 C #.!.^.$X%XQ.( o.o.%. XrXrXOXR.) Q.).$.* o # 2 3 5 5 6 6 6 7 7 g l e.m.m.V.M.m.j.A.",
"V.m.h.j.V.M.C.m.j.h.h.n ; = - * ] %.-.-.).-.%.%.+.=.@.+.! ! ( 3.!.2.T y 0 w $.=.&.^.@X7X^.^ o.o.;.'.+X+XOX(.Q.!.).:.% o + # 2 3 - - , 5 , 5 7 g n m.j.M.M.h.j.V.",
"m.V.D.D.S.V.D.V.j.h.a.l ; & o ; :.=.7.3.%.! ! %.! +.! ~ ^ *.T.!.*.( +.e 0 s ..Q '.'.(.+X@X3.T.o.-.'.oXXX$X%X+X;X].8.% o o # # 3 - - - - , , 7 i N h.j.M.k.m.M.V.",
"h.V.V.V.V.M.C.C.V.C.M u ; o . u :.#.=.=.+.W ~ Q ~ Q ! %.3.'._.*.) '.3X8.e D 7.).;X|.^.^.+X'.T._ ;.].oX^.(.OX;X2X-Xc.* o o # # # - - - - - , 6 7 x h.M.j.m.M.h.M.",
"d.M.M.M.S.M.M.m.h.h.z ; & o . ; } ] O.@...T L L L Q =.-.!._.!.) '.2X X-XF P wX].^ W ) Q.|.|._.-.( ).'.R.R.(.{. X[.8.% o . . . + - = - - - , 6 6 p h.t.M.M.V.V.V.",
"a.M.V.V.V.S.S.V.m.d.l $ o # . = G U { O.Y K Z L T X.-.!.3.!.!.) 0X+X!.`.=.2.wX%.W S ( ) 3.'.-.T.( ;.&.) R.{.{.`.2.} * o . . . + # # - - 3 < 6 6 i a.M.V.V.V.V.P.",
"a.V.V.V.V.A.S.V.M.r.8 o + # . . a H { ] U Z Z L Q +.=.3.!.~.^.Q.{.T.oX&./ 3.%.L ^ W W ^ 2. X).).%.~ _ ! ( !.'.7.O.V $ . o . + # # # # - 3 4 4 4 u y.j.V.V.V.V.P.",
"d.M.V.V.V.V.C.V.M.m = o o . O o t G ' J H C Z P O.+.7.`.!.~.(.~.!.!.'.( (  X! _ ! Q L Q &.[.).T.;.X.^ ^ W ( ).>.' r o   X O . # @ @ # # - - - - u M r.V.V.V.V.K.",
"j.M.M.M.V.k.D.V.j.m = o o   @ . q s s V F F F U ..+.=.3.).~.^.{.~.-.).^ W  XT.o.+.O...L ..7.-.;.=.@.@.%.Q Q +.$.V q . O @ @ + + # @ # # # # = - i n t.V.V.V.V.K.",
"h.M.M.M.V.V.g.m.d.n o .     # o % d s V H F F F P Y @.=.-.T.~.{._.!.!.S W `.:X;.+.+.@.Q Y +.%.=.@...Q Q Y I I P w $     O   @ @ # # # # # # - - 6 z r.j.h.j.h.h.",
"j.M.M.M.V.h.m.V.a.m # o .   . . $ a s s D F F F K P Q @.*.*.~.{.T.).%.W S 2.:X-.+.+.=.@.I L ~ @.@.Y I Y Y I P H w $ . @ X O O O O @ # # # # - , 6 z j.k.m.m.j.M.",
"f.M.j.M.V.j.V.M.t.n . . . . . . % a s y V D F F K K I ^ &.*.~.{._.T.%.@.B O.[.>.+...@.=.Q K Q Q ..Y I I U F P ' * .   O X X @ O O # # # # # , , 6 z j.j.m.j.j.V.",
"t.M.h.m.M.M.V.M.r.l . . . o = $ % a s y V V C F P Z Z Q %.-.!._.'.( 3.@.U Y 7.=.Q Q %.-.+.Y Q L Y Y Y Y U F C ' * .       X o + o # # # # # # , 6 l j.m.j.j.j.A.",
"d.M.j.j.M.k.C.M.w.l o o = . $ $ % y y y G F F H P Z Z L +.-.!._.!.%.7.O.E F O.@.! +.*.-.+.Q ..I I Y Y Y U D C ' $ . O @ X X . & # # - # # # - , 6 l g.j.j.j.j.A.",
"d.S.C.C.V.V.V.C.w.z o . . $ % q a s y s H H F H K F K K Q &.!._.~.!.+.Y D J K >.%.&.( %./ T ..O.I I L I U F H ' %       X X o = = = - - # # - , 6 z g.j.j.j.h.A.",
"n m m m m n m m 8 8 = . $ : x [ } ' V s H H V F C F K Z L ^ -.!.T.*.Q { c.1.C O.&.%._ W W S Q +.Q Q Q Y R U ] :.[ g o     X & = = - - - - - , , 6 p n m m m m m "
};
